<svg id="Layer_3" data-name="Layer 3" xmlns="http://www.w3.org/2000/svg" viewBox="0 0 79.8 23.7"><path d="M0,9.7a.49.49,0,0,0,.5.5h1A.49.49,0,0,0,2,9.7V4.3s0-.5.2-.1L4.1,7.4s.3.4.5,0L6.5,4.1s.2-.4.2.1V9.6a.49.49,0,0,0,.5.5h1a.49.49,0,0,0,.5-.5V.6A.49.49,0,0,0,8.2.1H7.1a.83.83,0,0,0-.7.4L4.6,3.8s-.2.4-.5,0L2.4.6A.79.79,0,0,0,1.7.2H.5A.49.49,0,0,0,0,.7Zm11.4,0a.49.49,0,0,0,.5.5H13a.49.49,0,0,0,.5-.5V.7A.49.49,0,0,0,13,.2H11.9a.49.49,0,0,0-.5.5ZM21.4.2a.83.83,0,0,0-.7.4L19.5,3s-.2.4-.5,0L17.8.6a.79.79,0,0,0-.7-.4H15.7s-.5,0-.3.4l2.3,4a1.17,1.17,0,0,1,0,.9L15.3,9.7s-.3.4.2.4h1.3a.83.83,0,0,0,.7-.4l1.4-2.5s.2-.4.5,0l1.4,2.5a.79.79,0,0,0,.7.4h1.4s.5,0,.2-.4L20.6,5.5a.82.82,0,0,1,0-.9l2.3-4s.3-.4-.2-.4Zm5.1,9.5a.49.49,0,0,0,.5.5h1.1a.49.49,0,0,0,.5-.5V2.6a.49.49,0,0,1,.5-.5h1.8a.29.29,0,0,0,.3-.3V.7a.49.49,0,0,0-.5-.5H24.4a.29.29,0,0,0-.3.3V1.7a.49.49,0,0,0,.5.5H26a.49.49,0,0,1,.5.5Zm8.8.3a.37.37,0,0,0,.3.2h1.2a.79.79,0,0,0,.7-.5l3-9.1s.2-.5-.3-.5H39a.62.62,0,0,0-.6.5L36.6,6.5s-.1.5-.3,0L34.5.6a.63.63,0,0,0-.6-.5H32.7s-.5,0-.3.5Zm6.9-.3a.49.49,0,0,0,.5.5h1.1a.49.49,0,0,0,.5-.5V.7a.49.49,0,0,0-.5-.5H42.7a.49.49,0,0,0-.5.5Zm7.8.6c1.9,0,3.4-1.1,3.4-3h0c0-1.6-.9-2.3-2.7-3-1.6-.6-1.9-.9-1.9-1.5h0c0-.5.4-.9,1.2-.9a3.33,3.33,0,0,1,2.1.9l1.2-1.6A5.16,5.16,0,0,0,50,0a3,3,0,0,0-3.3,2.9h0c0,1.7,1.1,2.4,2.9,3.1,1.4.5,1.7.9,1.7,1.4h0c0,.6-.5,1-1.3,1a3.84,3.84,0,0,1-2.5-1.1l-.9,1.1a.49.49,0,0,0,.1.7A4.9,4.9,0,0,0,50,10.3m5.7-.6a.49.49,0,0,0,.5.5h1.1a.49.49,0,0,0,.5-.5V.7a.49.49,0,0,0-.5-.5H56.2a.49.49,0,0,0-.5.5Zm8.9.6c2.6,0,4.5-2.1,4.5-5.1V5.1c0-3-1.9-5.1-4.5-5.1s-4.5,2.1-4.5,5.1v.2c0,2.9,1.9,5,4.5,5m0-1.9c-1.4,0-2.4-1.2-2.4-3.2V5.1c0-2,1-3.2,2.4-3.2S67,3.2,67,5.1v.1c0,2-1,3.2-2.4,3.2m6.9,1.3a.49.49,0,0,0,.5.5h1a.49.49,0,0,0,.5-.5v-5s0-.5.3-.1L77.3,10a.43.43,0,0,0,.4.2h1a.49.49,0,0,0,.5-.5V.7a.49.49,0,0,0-.5-.5h-1a.49.49,0,0,0-.5.5V5.5s0,.5-.3.1L73.5.4a.43.43,0,0,0-.4-.2H72a.49.49,0,0,0-.5.5Z" style="fill:#a69c87"/><path d="M79.6,23.4a.85.85,0,0,0,.2-.6.53.53,0,0,0-.6-.6.76.76,0,0,0-.5.2.85.85,0,0,0-.2.6.53.53,0,0,0,.6.6c.2,0,.4,0,.5-.2m-5.9-2.5a4.77,4.77,0,0,1,.8-1.6,1.71,1.71,0,0,1,1.2-.8c.3,0,.5.2.5.6a8.38,8.38,0,0,1-.2,1l-.2,1.1a11.48,11.48,0,0,0-.2,1.4,1.14,1.14,0,0,0,.3.8.91.91,0,0,0,.7.3,2.15,2.15,0,0,0,1.3-.6l-.2-.3a1,1,0,0,1-.7.2.46.46,0,0,1-.4-.5,4.48,4.48,0,0,1,.1-1.1l.3-1.2a8.92,8.92,0,0,0,.2-1.1c0-.8-.4-1.2-1.1-1.2s-1.3.5-1.9,1.4H74l.3-1.3H72.4l-.1.4h.1c.5,0,.7.2.7.5a1.09,1.09,0,0,1-.1.5l-.9,4.2h1ZM69,19a1.21,1.21,0,0,1,.9-.6c.4,0,.6.2.6.7a1.43,1.43,0,0,1-.6,1.2,2.41,2.41,0,0,1-1.5.4h-.1A5.44,5.44,0,0,1,69,19m.4,4c-.8,0-1.1-.5-1.1-1.4v-.4h.4a3.48,3.48,0,0,0,2.1-.6,1.76,1.76,0,0,0,.9-1.5,1,1,0,0,0-.4-.9,1.49,1.49,0,0,0-1-.3A2.79,2.79,0,0,0,68.1,19a4,4,0,0,0-.9,2.5,2.11,2.11,0,0,0,.6,1.6,2,2,0,0,0,1.5.6,1.84,1.84,0,0,0,1.3-.4,1,1,0,0,0,.5-.8.37.37,0,0,0-.1-.3,2.07,2.07,0,0,1-1.6.8m-4.6-6.9c.5,0,.7.2.7.5a1.09,1.09,0,0,1-.1.5l-.8,4a6,6,0,0,0-.2,1.6,1.45,1.45,0,0,0,.2.7.86.86,0,0,0,.6.3,2.16,2.16,0,0,0,1.4-.6l-.2-.3a1.42,1.42,0,0,1-.6.2c-.2,0-.3-.2-.3-.5a7.38,7.38,0,0,1,.2-1.2l1.2-5.7h-2l-.1.4h0Zm-4.9,3.2a13.64,13.64,0,0,0,.4-1.7l.4-1.9H58.8l-.1.4h.1c.5,0,.7.2.7.5a1.34,1.34,0,0,1-.1.5L58,23.6h1l.6-2.7a3.68,3.68,0,0,1,.8-1.5,1.71,1.71,0,0,1,1.2-.8c.3,0,.5.2.5.6a8.38,8.38,0,0,1-.2,1l-.2,1.1a11.48,11.48,0,0,0-.2,1.4,1.14,1.14,0,0,0,.3.8.91.91,0,0,0,.7.3,2.15,2.15,0,0,0,1.3-.6l-.2-.3c-.4,0-.6.1-.8.1a.46.46,0,0,1-.4-.5,4.48,4.48,0,0,1,.1-1.1l.3-1.2a8.92,8.92,0,0,0,.2-1.1c0-.8-.4-1.2-1.1-1.2s-1.3.5-1.9,1.4Zm-3.3-3a.47.47,0,0,0-.5-.5c-.4,0-.6.2-.6.7a.47.47,0,0,0,.5.5c.4,0,.6-.2.6-.7m-2,0a.47.47,0,0,0-.5-.5c-.4,0-.6.2-.6.7a.47.47,0,0,0,.5.5c.5,0,.6-.2.6-.7m.9,4.3a5.09,5.09,0,0,1-.7,1.7,2,2,0,0,1-1.1.7c-.4,0-.7-.4-.7-1.2a4.65,4.65,0,0,1,.6-2.3,1.63,1.63,0,0,1,1.5-1.1.81.81,0,0,1,.8.4Zm-.3,2.2c0,.6.3.9.8.9a2.4,2.4,0,0,0,1.5-.6l-.2-.3a3.09,3.09,0,0,1-.8.2c-.2,0-.3-.2-.3-.5a7.38,7.38,0,0,1,.2-1.2l.7-3.3h-.3l-.5.3a2.14,2.14,0,0,0-1.2-.4,2.63,2.63,0,0,0-2.2,1.2,4.39,4.39,0,0,0-.9,2.7,2,2,0,0,0,.4,1.4,1.23,1.23,0,0,0,1,.5c.8,0,1.4-.6,1.9-1.7h.1a1.34,1.34,0,0,0-.2.8m-7.4.2,3.5-4.5.1-.4H47.8l-.4,1.5h.4c.2-.3.3-.6.4-.7a.85.85,0,0,1,.6-.2h1.3l-3.5,4.6-.1.4h4.2l.4-1.7h-.4l-.1.2a3.22,3.22,0,0,1-.4.7.76.76,0,0,1-.5.2H47.8Zm-1.1-4.4c0-.5-.3-.7-.9-.7a1.22,1.22,0,0,0-.9.3,2.89,2.89,0,0,0-.8,1.3H44l.2-1.5H42.4l-.1.4h.1c.6,0,.8.2.8.5a1.09,1.09,0,0,1-.1.5l-.9,4.2h1l.4-1.9a6.56,6.56,0,0,1,.8-2.1c.4-.6.7-.9,1-.9s.4.3.4.8q.9-.15.9-.9m-8.8,1.3h2.5l.1-.5H38l.6-2.8h1.7c.5,0,.7.2.7.7v.6h.5l.3-1.8H36.6l-.1.4h.1c.3,0,.5,0,.6.1s.1.2.1.4v.2l-1.1,5.1a.55.55,0,0,1-.3.5,1.17,1.17,0,0,1-.7.2h-.1l-.1.4h5.6l.5-1.8h-.5l-.2.4a1.18,1.18,0,0,1-1.2.9h-2Zm-6.2,3.5a.85.85,0,0,0,.2-.6.53.53,0,0,0-.6-.6.76.76,0,0,0-.5.2.85.85,0,0,0-.2.6.53.53,0,0,0,.6.6c.2,0,.4,0,.5-.2M31,18.6c0-.5-.3-.7-.9-.7a1.22,1.22,0,0,0-.9.3,2.89,2.89,0,0,0-.8,1.3h-.1l.2-1.5H26.7l-.1.4h.1c.6,0,.8.2.8.5a1.09,1.09,0,0,1-.1.5l-.9,4.2h1l.4-1.9a6.56,6.56,0,0,1,.8-2.1c.4-.6.7-.9,1-.9s.4.3.4.8q.9-.15.9-.9m-7.6.4a1.21,1.21,0,0,1,.9-.6c.4,0,.6.2.6.7a1.43,1.43,0,0,1-.6,1.2,2.41,2.41,0,0,1-1.5.4h-.1a3.8,3.8,0,0,1,.7-1.7m.3,4c-.8,0-1.1-.5-1.1-1.4v-.4H23a3.48,3.48,0,0,0,2.1-.6,1.76,1.76,0,0,0,.9-1.5,1,1,0,0,0-.4-.9,1.49,1.49,0,0,0-1-.3A2.79,2.79,0,0,0,22.4,19a3.84,3.84,0,0,0-.9,2.5,2.11,2.11,0,0,0,.6,1.6,2,2,0,0,0,1.5.6,1.84,1.84,0,0,0,1.3-.4,1,1,0,0,0,.5-.8.37.37,0,0,0-.1-.3,1.93,1.93,0,0,1-1.6.8m-3.9,0a.53.53,0,0,1-.6-.6,3.44,3.44,0,0,1,.1-.9l.6-3h1.3l.1-.6H20l.3-1.3h-.5c-.4,1-.9,1.5-1.6,1.5l-.1.4h.8l-.6,3a2.77,2.77,0,0,0-.1.9c0,.8.4,1.2,1.1,1.2a2.65,2.65,0,0,0,1.4-.5l-.2-.4a.78.78,0,0,1-.7.3m-4.5-4.6c.4,0,.6.1.6.4v.3L15.5,21a6,6,0,0,0-.2,1.6,1.45,1.45,0,0,0,.2.7.86.86,0,0,0,.6.3,2.16,2.16,0,0,0,1.4-.6l-.2-.3a1.33,1.33,0,0,1-.7.3c-.2,0-.3-.2-.3-.5a7.38,7.38,0,0,1,.2-1.2l.7-3.3H15.3l-.1.4Zm2-1.6a.76.76,0,0,0,.2-.5.53.53,0,0,0-.6-.6c-.2,0-.3.1-.5.2a.76.76,0,0,0-.2.5.53.53,0,0,0,.6.6.76.76,0,0,0,.5-.2M11.9,19a1.21,1.21,0,0,1,.9-.6c.4,0,.6.2.6.7a1.43,1.43,0,0,1-.6,1.2,2.41,2.41,0,0,1-1.5.4h-.1a3.8,3.8,0,0,1,.7-1.7m.3,4c-.8,0-1.1-.5-1.1-1.4v-.4h.4a3.48,3.48,0,0,0,2.1-.6,1.76,1.76,0,0,0,.9-1.5,1,1,0,0,0-.4-.9,1.49,1.49,0,0,0-1-.3A2.79,2.79,0,0,0,10.9,19a4,4,0,0,0-.9,2.5,2.11,2.11,0,0,0,.6,1.6,2,2,0,0,0,1.5.6,1.84,1.84,0,0,0,1.3-.4,1,1,0,0,0,.5-.8.37.37,0,0,0-.1-.3,1.93,1.93,0,0,1-1.6.8M7.4,20.8c-.2.4-.5,1-.8,1.7a12.13,12.13,0,0,0-.1-1.8l-.3-4.5H5.5L3.3,20.7c-.3.6-.6,1.2-.9,1.9a12.13,12.13,0,0,0-.1-1.8l-.2-3.3v-.4c0-.4.2-.5.7-.5H3l.1-.4H.4l-.1.4H.4a.75.75,0,0,1,.5.1c.1.1.1.2.1.4l.5,6.4h.9l2.8-5.8.5,5.8h1l3.1-6.2a5.92,5.92,0,0,1,.4-.6.76.76,0,0,1,.5-.2H11l.1-.4H8.5l-.1.4h.2c.4,0,.6.1.6.4a3.93,3.93,0,0,1-.2.6Z" style="fill:#a69c87"/></svg>