<svg id="Layer_1" data-name="Layer 1" xmlns="http://www.w3.org/2000/svg" viewBox="0 0 136.71 67.45"><path d="M0,0H136.7V67.45H0Z" style="fill:#002f67"/><path d="M49.07,48.94a5.53,5.53,0,0,1-2.4.56c-1.87,0-2.83-1.23-2.9-3s.82-3.4,2.82-3.4a6.19,6.19,0,0,1,2.5.6l-.3-2.15a11.11,11.11,0,0,0-2.9-.38c-3.7,0-5,2.36-5,5,0,3.5,1.92,5.3,5.1,5.3a8.42,8.42,0,0,0,2.7-.4l.2-2.2Z" style="fill:#fff"/><path d="M57.42,43.06c1.75,0,2.66,1.27,2.66,3.2s-.9,3.23-2.66,3.23-2.65-1.3-2.65-3.3.9-3.2,2.65-3.2m0-2C54,41,52,43.09,52,46.11s2,5.13,5.4,5.13,5.4-2.1,5.4-5.1-2-5.2-5.4-5.2" style="fill:#fff;fill-rule:evenodd"/><path d="M68.64,41.36H66.07V51.2h2.75V45.58c0-.4.26-2.24,2-2.24,1.08,0,1.47.78,1.47,1.73V51.2h2.76V45.58c0-.4.25-2.24,2-2.24,1.1,0,1.5.78,1.5,1.73V51.2h2.8V43.72c0-1.8-1.5-2.6-3.3-2.6a3.26,3.26,0,0,0-3.2,1.8,3,3,0,0,0-3-1.8,3.34,3.34,0,0,0-3.1,1.8V41.3Z" style="fill:#fff"/><path d="M87.83,43.46a7.09,7.09,0,0,1,2.1-.4c1.86,0,2.82,1.3,2.82,3.35,0,1.3-.6,3.1-2.36,3.1a2.67,2.67,0,0,1-2.6-2.7v-3.3ZM85.08,55.63h2.75V49.8l0,.05a4.49,4.49,0,0,0,3.45,1.6c3,0,4.2-2.6,4.2-4.92,0-5.4-4.5-5.4-5.72-5.4a24.84,24.84,0,0,0-4.72.55Z" style="fill:#fff;fill-rule:evenodd"/><path d="M104.87,51.2h2.62V43.8c0-2.26-2.2-2.67-4-2.67a18,18,0,0,0-4.3.57L99,43.55a10.39,10.39,0,0,1,3.8-.84c.7,0,1.8.2,1.8,1.3,0,2-6.7.8-6.7,4.6,0,2,1.42,2.9,3.63,2.9a15.29,15.29,0,0,0,1.8-.2l.43-1.7a4.07,4.07,0,0,1-1.55.3c-.8,0-1.7-.2-1.7-1.2,0-1.7,3.26-1.7,4.2-2.5v5.1Zm14-2.26a5.49,5.49,0,0,1-2.4.56c-1.86,0-2.82-1.23-2.9-3s.83-3.4,2.83-3.4a6.31,6.31,0,0,1,2.56.6l-.24-2.15a10.79,10.79,0,0,0-2.9-.38c-3.7,0-5,2.36-5,5,0,3.5,2,5.3,5.1,5.3a8.18,8.18,0,0,0,2.7-.4l.26-2.2Zm7.2-7.58V39l-2.75.66v1.7h-1.38V43.3h1.38v5.58c0,1.94,1,2.55,2.9,2.55a7.55,7.55,0,0,0,2.2-.3l.33-2a5.9,5.9,0,0,1-1.46.18c-1,0-1.3-.68-1.3-1.66V43.3h2.5V41.36h-2.42Z" style="fill:#fff"/><path d="M28,32.48h7.14v7.09m0,12V58.8h-7m-12.18,0H8.76V51.69m0-12v-7.2h7" style="fill:none;stroke:#fff;stroke-miterlimit:3.859999895095825;stroke-width:0.3499999940395355px"/><path d="M26.88,45a5.11,5.11,0,1,0,0,1.19h8.36a13.63,13.63,0,1,1,0-1.19H26.88Z" style="fill:#fff"/></svg>