<svg id="svg3437" xmlns="http://www.w3.org/2000/svg" viewBox="0 0 537.27 124.61"><g id="layer1"><path id="path80" d="M230.57,0a6.06,6.06,0,0,0-1.47.1c-.71.15-3.67,1.33-4.51,1.37a13,13,0,0,0-3.62.39c-1.82.47-2,2.87-3.83,6.08L215,12.46C208.77,25,204.46,39,204.3,48.24a24.38,24.38,0,0,0,1.76,9.41,20.57,20.57,0,0,0,5.59,7.06c1.38,1,6.09,4.49,8.92,4.51a4.82,4.82,0,0,0,2.55-.59c1.19-.66,1.52-1.17,1.47-2-.07-1.2-2.64-7-2.64-7a15.49,15.49,0,0,1-.59-4.9c.22-2.15,1.65-7.88,2-9s1.19-2.94,1.66-4.22,2-5,2.55-6.27c1.53-4.18,2.41-6.58,2.75-7.55l2.06-7L234,13.73s.35-1.74.59-3.53a20.13,20.13,0,0,0-.39-5.68A23.92,23.92,0,0,0,231.75.3,2.51,2.51,0,0,0,230.57,0Zm24.8,34.41a3.63,3.63,0,0,0-1.17.19,7.15,7.15,0,0,0-2,1.87L246.94,43l-3.23,4.9c-3.65,5.06-6.9,21.47-6.08,31A86.08,86.08,0,0,0,239.1,88a48.29,48.29,0,0,0,3.43,10.2,3.66,3.66,0,0,0,3.63,2.45c6,.29,7.46-1.39,9.41-4.91.53-1,.94-4.78,1.08-5.88.1-.8.78-11.37.78-11.37l.4-10.19s-.42-10.46.09-14a48.52,48.52,0,0,1,2.75-9.22,28.81,28.81,0,0,0,1-4.7,20.27,20.27,0,0,0,.49-2.65c.22-1.62-.05-1.58-1.77-2.55a9.75,9.75,0,0,0-5-.78ZM47.65,38.83c-1.13,0-2.32.07-3.53.19a60.32,60.32,0,0,0-19.71,6l-5.68,3C6.93,54.11.19,65.22,0,76.77c-.17,10.46,8.25,20.4,11.67,22.84a33.74,33.74,0,0,0,10.49,4.8,40.2,40.2,0,0,0,8.43,1.18,30.33,30.33,0,0,0,7-.49c7.59-1.13,16-7,17.35-7.94a17,17,0,0,0,4.41-3.34,13.94,13.94,0,0,0,3.43-6.76c0-.62.15-.92-.59-1-1.16.13-5,2.72-9.21,5.29A31.16,31.16,0,0,1,40.1,96.08C25.82,96.33,13.79,83.91,14,69.9c.1-6.15,3.71-11.37,9-14.9a24.42,24.42,0,0,1,12-3.53,29.2,29.2,0,0,1,6.18,1.18c5.2,1.64,9.42,2,9.8,5.78s-4.27,7.91-8,8.63a14.58,14.58,0,0,1-7.65-.78c-2.53-1-5.46-4.07-7.35-3.53s-6.77,3.87-7.74,4.9c-.75.79-.93,1.43-.79,1.76,1,4.47,8.15,7.54,12.35,7.65,4.9.13,14.75-1.62,18.63-3.43,2.22-1,10.37-6.08,13.43-12.16s2.65-13.28.59-16.27c-3.16-4.58-8.87-6.6-16.76-6.37ZM435.85,40A26.48,26.48,0,0,0,428,41c-4,1.27-10.93,5.34-14.22,8a61.81,61.81,0,0,0-9.21,10.1c-1.41,2.06-6.9,9.85-7.06,18.53s9.86,19.17,14,21.57c9.33,5.37,22.51,5.39,25.49,5.29A108,108,0,0,0,450.36,103c5.08-1.15,11.53-4.67,13.53-6,1.72-1.14,7-6,6.37-7.45s-6.62-1.5-8.63-2.26c-1.66-.62-2.72,1.21-6.76,3-8.59,4.24-20,5.41-26.37,5.09-3.24-.16-7.93,0-11.08-2A17.21,17.21,0,0,1,409.58,80c0-1.7,1.6-7.34,2.25-7.74a18.84,18.84,0,0,0,6.08,6.86c2,1.28,5.2,2.67,12.16,2.94S443.2,78.22,445.75,76a65.44,65.44,0,0,0,5.88-6.57c1-1,3.61-6.37,3.83-9a16.77,16.77,0,0,0-2-8.34,39.44,39.44,0,0,0-6.08-7.25,23,23,0,0,0-9.71-4.61,10.79,10.79,0,0,0-1.86-.19Zm-252.92.29a20.77,20.77,0,0,0-4.12.39l-.59.1a71.79,71.79,0,0,0-7.15,1.86s-6.23,2.17-8.63,3a57.94,57.94,0,0,0-11.57,6.37c-2.54,2.11-5.05,4-7.15,6.77-1.71,2.28-2.62,4.37-2.45,5.68a6.17,6.17,0,0,0,3.33,4.41,28.66,28.66,0,0,0,12.06,2.75c9,0,20.49,3.68,20.78,7.94.22,1.75-.44,4-3.82,6.37-.57.37-6,3.56-10.3,4a13.89,13.89,0,0,1-9.11-2.25,3.81,3.81,0,0,0-4.22-.4,94.8,94.8,0,0,1-9.61,5.2c-2.34,1.13-4,3.52-3.33,4.9,2.09,4.52,5.15,5.25,7.55,5.79,2.83.62,14.45,1.57,18.13,1.07,10.22-1.38,19.41-5.06,23.92-9,3.22-2.82,5-7.05,5.89-9a15.58,15.58,0,0,0,.78-7.26c-.72-5.7-8.67-11.5-17.74-12.94l-14.22-2.35c-1.87-.22-4.67-1.51-4.51-2.84.21-1.72,3-3.65,4.9-4.22a50.86,50.86,0,0,1,10-1.57,10.42,10.42,0,0,1,5.69,1.47c1.23.59,2.2,1.43,3.43,1.67,5.27,1,7.68-1.09,8.82-2.75,1-1.38,1-6.19.89-7.64-.19-3.12-3.26-6.64-5.59-7.26a8.67,8.67,0,0,0-2.06-.29ZM369.78,44a19.53,19.53,0,0,0-7.26,1.28c-2,.89-10,5.62-12,8.14A34.18,34.18,0,0,0,343,63.92,75.54,75.54,0,0,0,339.88,73c-.43,2-1.27,8.25-1.08,9.22a56.57,56.57,0,0,0,.88,6.07c1,4.52,3.11,7.32,6.08,8.53,8.32,3.4,19.24.2,22.55-1.27,2.46-1.1,5.78-2.94,5.78-2.94A18.13,18.13,0,0,1,361.84,110c-6.26,2.26-23.52,5.6-32.94,5.49-6.72-.08-5.62,3.86-4.32,5.39s4.07,3.86,11.38,3.73c15.33-.29,30.19-2.6,37.44-7.55,6.91-4.71,10.06-13.08,12.16-20.49A69.07,69.07,0,0,0,388,78.14c.13-3.06.06-13.16.49-15.39s2.12-5,2-6a4.08,4.08,0,0,0-.78-1.77c-1.48-1-3.73-.29-3.73-.29l-5.59,1c-.27-.24.09-1.78.3-3a6.23,6.23,0,0,0-.49-3.92c-.72-1.81-4.32-3.63-4.32-3.63A17.77,17.77,0,0,0,369.78,44Zm159.89.1c-.61,0-1.12.06-1.67.1a63.78,63.78,0,0,0-14.8,2.94c-4.15,1.58-11.31,3.92-16.18,8.14-3.75,3.25-6.83,7.65-9.31,10.68C485,61.56,482.9,55.45,481,55.2c-2.85-.38-4.75-2.45-6.86-2.55-1.41-.06-1.69,1.12-1.86,1.77a26.23,26.23,0,0,0,.39,6c.47,1.79,2.64,9.52,3.24,12S477.88,81,478.4,83s-.18,2.79.78,5.2,8,7.51,9.31,8.33a39.49,39.49,0,0,1,3.73,2.65,6.1,6.1,0,0,0,3.82,1.27c1.73-.18,2.33-.39,3.73-2.16s0-12.8.68-15.68-.1-7.58,3.34-13.14c4.08-6.61,13.52-11.1,16-12.35,6-2.65,10.26-5.14,14.5-7.35,2-1.06,4.75-3.78,1.47-4.81a21.05,21.05,0,0,0-6.07-.88Zm-224.1.1a20.3,20.3,0,0,0-7.36.78c-1.46.6-8.92,3.53-8.92,3.53s-2.25,1.23-2.55,1.08S286,48.28,285.47,48c-.71-.43-6.34-.57-7.55.58s-1.66,5.2-1.66,5.2L272.82,75a78.32,78.32,0,0,0-.88,15.78c.17,4.67.36,7.17,1.28,8.83s6.55,3.81,7.45,4c1.2.27,3.39-1.31,4-2.55a21.65,21.65,0,0,0,1.56-6c.33-2.43.92-8.38,1.28-10.79s1.86-9.8,1.86-9.8a22.61,22.61,0,0,1,7.06-10.88s6.76-4.82,8.82-5.69a18.4,18.4,0,0,1,4.9-1.27c2.39-.13,3.51,1.55,3.63,5.1A87.33,87.33,0,0,1,312,80.49c-1.19,4.56-2,8-2,10.2-.07,5.37,3.21,7.25,4.9,8.33a9.74,9.74,0,0,0,4.7,1.47c1.67-.07,4.15-1.48,5.49-5s1.95-8,2.55-11.67,1-15.91.49-19.5-1.82-5.7-2.55-7.55-3.37-5-5.39-6.86a43.17,43.17,0,0,0-8.14-4.71,23.36,23.36,0,0,0-6.56-1Zm-183.52.39c-.59,0-11.47,1-14.6,1.77-3.68.83-13.11,3.27-18.34,5.88A62.85,62.85,0,0,0,80,57.94c-3.24,2.57-5.15,5.29-5.59,7.85-.5,2.87,1.73,5.38,4,6.57s8.41,2.41,9.21,2.45c6.37.3,18.63,3.45,20.1,3.72.83.15,6.71,1.32,7.74,5.59s-5.91,6-7.15,6.17A29.14,29.14,0,0,1,98.43,89l-6.28-2.45a10.23,10.23,0,0,0-6.47,1.67C83.1,89.66,71.94,91.93,70,92.55c-.42.13-3.36,1.77.29,3.82.6.34,9,3,10.88,3.34s19.93,3.44,21.28,3.62a44.56,44.56,0,0,0,12.94-.68,35,35,0,0,0,8.92-3.53c5.72-3.48,6.72-9.73,7.05-13.33.77-8.24-9-15.86-20.68-18.14-1.76-.3-3.65-.52-5.59-.69,0,0-7.29.16-10.29-1.08s-1.25-4.31-.69-5a19.61,19.61,0,0,1,5.69-4c4.42-2,10-1.79,13.82-.89,2.45.58,6.64,1.37,9.8.69s4.68-1.48,5.2-2.94c.78-2.19.64-7.2-2.35-8.53a19.77,19.77,0,0,0-4.22-.59Zm304.49,8.53c2.33-.08,4.95.38,6.47,2.06a5.91,5.91,0,0,1,1.66,3.92c-.09,2.15-2.14,6-3.62,7.35s-5.13,2.45-9.22,2.75c-2.23.16-3.52-.93-4.8-1.86A26,26,0,0,1,414.38,65a2,2,0,0,1-.49-1.37c0-.83,1.27-2.93,2.75-4.71,2.63-3.27,5.07-5.11,7.74-5.58a15.72,15.72,0,0,1,2.16-.2ZM368.7,54.91a2.28,2.28,0,0,1,2.16.88c.69,1.23,1.09,10.86.49,15.58s-.69,8.63-3.53,12a15,15,0,0,1-10.49,4.61c-1.86-.14-3.78-2.63-4-4.9a23.94,23.94,0,0,1,.59-11.37c2.19-8,6.91-14,12-16a7.23,7.23,0,0,1,2.84-.78Z" style="fill:#115fa2"/><path id="path104" d="M257.34,4.52a3.78,3.78,0,0,0-1.28.29c-.94.43-3.19,4.29-3.63,5.59a9.93,9.93,0,0,0-.09,4.7c.32,1.77,3.48,4.82,6.86,5.3a21.73,21.73,0,0,0,4.12,0,11.28,11.28,0,0,0,3.43-1.18c2.41-1,3.63-4.42,3.82-5.49a3.83,3.83,0,0,0-1.08-3c-.8-.79-2.77-2.57-3.43-3.23a18.12,18.12,0,0,0-4.31-2.65,17.6,17.6,0,0,0-3.53-.29,8.41,8.41,0,0,0-.88,0ZM213.61,83a16.65,16.65,0,0,0-1.66.2c-1.26.22-3.59.64-5.3.78-.87-.3-3,.63-3.82,1.47a5.57,5.57,0,0,0-1.27,5.69c.66,1.61,5.22,10.53,6.76,11.17,5.24,2.2,10.64.39,12.25-1.57,1.18-2.4,2.58-5.31,2.06-8.23a18.13,18.13,0,0,0-1.86-5.78,9,9,0,0,0-3.33-3,7.33,7.33,0,0,0-2.26-.78,5.5,5.5,0,0,0-1.57,0Z" style="fill:#ed1c24"/></g></svg>