<svg id="svg14475" xmlns="http://www.w3.org/2000/svg" viewBox="0 0 400 126.99"><path id="path10497" d="M268.91,120.5c-19.78-.16-39.09-16.22-38.93-56.77-.16-42,20-57.24,38.93-57.09,21.57,0,40.71,15.09,40.71,57.09,0,40.55-19.47,56.77-40.71,56.77m-48.3-18c11,15.73,28.73,24.59,48.3,24.49,32.92,0,61.8-23.85,61.8-63.09,0-42.34-30.82-63.9-61.8-63.9-29.36,0-59.68,21.4-59.68,63.73,0,14.42,3.7,26.8,10,36.69"/><path id="path10501" d="M116.93,2.91h-1.61c-1,4.39-4.06,7.79-7.63,7.15C99.59,8.6,87.91,1.3,68.12,1.3,28.22,1.3,0,33.74,0,64.7c0,38.77,34.71,62.13,70.88,62.13,18.49,0,45.74-9.24,45.74-12.49V77c0-14.19,6.7-16.45,14.76-16V59.2l-48.17.16.16,1.45c12.8,1,14.76,1.95,14.76,18.34V109c0,6.15-12.82,12.32-25.64,12.32-29,0-51.9-22.06-51.9-55.47,0-46.54,31-60.82,48.87-60.21,25.77.91,43.69,17.17,45.85,34.61h1.62Z"/><path id="path10505" d="M219.22,100.42c-11.42,21.11-18.43,18.94-41.63,19.11-26.75-.16-27.4,1-27.4-8.43v-47l28.54.17c17,0,19,4.86,21.08,16.69l1,.17V41.51h-1c-3.24,14-3.4,17.2-21.08,17.2H150.19V8.76h32.44c17.18,0,21.57,3.4,25.13,11.19,1.14,2.27,1.63,5,2.27,8.27l1,.16V2.75l-94.07.16V4.39c10.41,1.15,14.45,4.77,14.45,18.8v82.55c0,15.09.47,16.88-14.76,19.47V126H212.3l8.31-23.52"/><path id="path10507" d="M398.32,106.74c-55.25-9.37-110.5,10.58-165.75,1.22q-.84-31.45-1.68-62.93C287.26,55.42,343.63,35.89,400,46.28c-.08-.77-29.67,22-29.67,26.53,0,3.29,28.07,33.31,28,33.93"/><path id="path10513" d="M285,63.9a5.37,5.37,0,0,1-4-1.49,5.24,5.24,0,0,1-1.59-3.87A5.92,5.92,0,0,1,285,52.76a5.35,5.35,0,0,1,4,1.45A5.12,5.12,0,0,1,290.59,58,6,6,0,0,1,285,63.9" style="fill:#fdfdfd"/><path id="path10519" d="M343.73,72.67c-4.49.48-7.89,5.52-7.75,11.39.08,3.8,2.14,6,5.35,5.76l.33,0c4.45-.52,7.85-5.45,7.74-11.3-.08-3.78-2.12-6-5.36-5.86l-.31,0M340.65,99.1a13.92,13.92,0,0,1-10.82-3.48c-3,2.89-6.24,4.24-11.17,4.7-2.93.28-5.16-.29-6.66-1.69s-2.11-3.34-2.08-6a15.08,15.08,0,0,1,.62-4c.83-2.9,1.67-5.79,2.5-8.69a7.7,7.7,0,0,0,.34-2.26,2.89,2.89,0,0,0-.73-2.2,2.83,2.83,0,0,0-2.17-.57c-1,.09-4,.34-5.57,6.54q-2.55,9.94-5.08,19.89c-3.58.3-7.16.59-10.74.83l1.89-7.5.71.14-.14-.11-.54-.12q2.26-8.94,4.55-17.88l-3.9.28c.85-3.18,1.68-6.34,2.52-9.52,4.4-.3,8.79-.66,13.17-1-.24,1.07-.48,2.13-.71,3.19,2.31-2.33,5.2-4.14,8.2-4.39a8.44,8.44,0,0,1,6.63,2.08c1.9,1.78,2.89,4.5,2.81,7.87a20.06,20.06,0,0,1-.95,5.69c0,.08-.05.15-.07.23-.14.48-.66,2.2-2.38,8.23-.39,1.39-.37,2.43.08,3a1.83,1.83,0,0,0,1.58.57,6.37,6.37,0,0,0,4.18-1.9,15.9,15.9,0,0,1-1.14-5.62c-.31-10.82,7.85-20.8,18.17-21.9.34,0,.67-.06,1-.07,8.75-.47,15,5.59,15.09,14.31.15,10.78-8,20.07-18.2,21.3l-1,.09" style="fill:#fdfdfd"/><path id="path10525" d="M281.33,103.18a7.78,7.78,0,0,1-7.48-3.92c-2.11,2.26-5.78,4.38-12.2,4.29a8.5,8.5,0,0,1-6.73-3.28,11.35,11.35,0,0,1-1.71-9.39q3.43-13.9,7-27.9l-4.64-.19c.85-3.32,1.72-6.64,2.58-10,5,.2,10.07.24,15.1.15q-4.79,19.45-9.44,38.83a4.22,4.22,0,0,0,.64,3.64,3.13,3.13,0,0,0,2.17,1.23,8,8,0,0,0,6.06-2.2,14.49,14.49,0,0,1,.33-3.3c1.1-4.49,2.19-9,3.3-13.46-1.4.06-2.81.07-4.21.1l2.46-9.43c5-.11,10-.34,15-.64q-3,11.82-6,23.61a4.45,4.45,0,0,0,.59,3.79,2.39,2.39,0,0,0,1.78.91,8.51,8.51,0,0,0,5.43-2l1.93,1.71c-2.27,3.21-6.17,7.14-11.9,7.43" style="fill:#fdfdfd"/></svg>