<svg id="svg6712" xmlns="http://www.w3.org/2000/svg" xmlns:xlink="http://www.w3.org/1999/xlink" viewBox="0 0 1510.24 500.47"><defs><clipPath id="clip-path"><polygon points="0.63 500 1510.24 500 1510.24 0 0.63 0 0.63 500 0.63 500" style="fill:none"/></clipPath></defs><g id="layer1"><g id="g1822"><g style="clip-path:url(#clip-path)"><g id="g1824"><g id="g1830"><path id="path1832" d="M56.54,0S0,0,0,56.54V444s0,56.45,56.54,56.45H1453.15s56.46,0,56.46-56.45V56.54S1509.61,0,1453.15,0" style="fill:#fbac0a"/></g></g></g></g><g id="g1834"><path id="path1836" d="M601.42,321.18l-2.84-5.67c-29.52,56.22-46.53,50.55-105.59,51-66.77-.48-68.42,2.36-68.42-21.11V228.11l71.26.39c42.44,0,47.32,12.13,52.6,41.74l2.44.39V171.89h-2.44c-8.11,34.8-8.51,42.83-52.6,42.83H424.57V90.16h80.94c42.92,0,53.86,8.5,62.76,27.87,2.83,5.67,4,12.6,5.67,20.63l2.36.4V75.2l-238.74.39v3.23c29.13,2.44,40.08,10.47,40.08,47.32v206c0,37.63,1.26,42-36.85,48.5v2.05H579.53l21.89-61.89" style="fill:#fff"/></g><g id="g1838"><path id="path1840" d="M50.24,229.69c0,96.69,86.61,155,176.85,155,46.14,0,114.09-23.08,114.09-31.19v-93c0-35.67,16.54-41.18,36.77-39.92l.08-4.64-120.23.39.39,3.7c32,2.44,36.85,4.8,36.85,45.67v74.49c0,15.35-32,30.78-63.94,30.78-72.44,0-129.45-55-129.45-138.42,0-116.14,77.64-146.06,122.21-146.06,64.33,0,110.47,39.21,117.32,82.52l4-.4L342,75.51h-4C335.51,86.46,327.8,95,318.9,93.31c-20.24-3.62-49.37-21.81-98.74-21.81-99.53,0-169.92,80.86-169.92,158.19" style="fill:#fff"/></g><g id="g1842"><path id="path1844" d="M721.1,368.9c53,0,101.58-40.47,101.58-141.73,0-104.73-47.8-142.37-101.58-142.37-47.32-.39-97.48,37.64-97.08,142.37-.4,101.26,47.71,141.33,97.08,141.73m0,16.22c-80.55.39-148.89-59.92-148.89-158,0-105.52,75.66-158.9,148.89-158.9,77.33,0,154.18,53.78,154.18,159.45,0,97.87-72,157.4-154.18,157.4" style="fill:#fff"/></g><g id="g1846"><path id="path1848" d="M821.1,230.31c2-26.92,4.49-43.07,3.7-49.21-1.65-13.54-10.47-20.47-22.67-18.9-18,2.13-20.71,15.83-22.6,50.63-3.15,57.48-.63,117.41,6.61,176.38,7.72,62.92,13.7,90,36,87.33,12.2-1.58,19.92-10.87,18.58-21.34-.47-4.41-8.82-35.67-16.3-97.33-9.45-76.77,2.6-115.51,45-120.63,22.68-2.83,34.41,6,37,27.33,1.89,15.19,1.34,51.26,8.19,106.14,6.3,51.57,16,76.14,33.46,73.94,13.07-1.66,19.14-9.93,17.48-23.47-1.18-9.61-7.64-26.06-10.55-50.55-13.38-108.58-16.14-163.23,31.42-169.06,26.22-3.3,41.18,21.5,47.87,75.67,9.85,80.24,1.42,131,3.47,147.09,1.49,12.68,6.61,18.19,17.08,16.93,25.36-3.07,32.13-59.76,18.82-168-9.92-81.1-37-117.72-86.77-111.66-33.23,4.1-56.3,21.58-70.94,53.94-12.37-13.94-27.25-19.68-45.59-17.4-21.82,2.68-39.45,14.09-49.22,32.2M1104.25,63C1086.77,65.2,1075,80.39,1077,97.4a28.44,28.44,0,0,0,31.89,24.8c18.34-2.2,28.19-15.35,26-33.62C1132.76,71,1120.39,61.1,1104.25,63m31.42,107.8c-1.89-15.28-9.37-22.29-22.52-20.71-19.21,2.36-22.05,18.66-17.56,55.27,1.1,8.74,4.41,28.43,8,58,11.11,90.31,1.74,126.06,2.13,129.52,1.34,10.48,11.57,18.11,22.91,16.78,18.35-2.37,20.4-18,21.18-47.88s-2.36-94.57-14.17-191m70.71,12.12-.63-4.72c-2-16.62,1.73-29.53.39-40.39-1.1-8.74-10.78-15.52-21.65-14.18-17.09,2.13-22.28,24.41-16.93,67.72,5.51,45.27,15.43,86.3,24.09,124.09,10.87,49.22,13.86,73.23,14.57,75.83,4.33,13.15,7.25,19.05,22.52,17.09,15.28-1.74,19.53-13.78,16.46-39.22-4.1-33.07-20.47-69.29-25.36-108.89-6.14-50.24,18.82-85.28,57.64-90,33.62-4.1,55.43,22.52,62.13,76.53,7.48,61.1-8.59,99.45-6.7,114.73,1.11,9.68,10.79,16,21.66,14.56,10.47-1.18,17.16-12.28,21.57-34,6.77-34.49,8.43-68.43,4.18-102.92C1370.87,162,1332.91,123.94,1278,130.71c-29.29,3.62-54.09,21.26-71.57,52.2m199.84-157c-17.48,2.2-29.29,17.4-27.24,34.4a28.39,28.39,0,0,0,31.89,24.81c18.34-2.21,28.19-15.36,26-33.62-2.12-17.56-14.49-27.48-30.63-25.59m31.42,107.79c-1.89-15.2-9.37-22.28-22.52-20.71-19.14,2.44-22,18.66-17.56,55.36,1.1,8.66,4.41,28.34,8,58,11.1,90.23,1.73,126,2.13,129.45,1.34,10.47,11.57,18.19,22.91,16.77,18.35-2.29,20.39-18,21.18-47.8s-2.36-94.64-14.17-191.1" style="fill:#d80019"/></g></g></svg>