<svg id="svg2299" xmlns="http://www.w3.org/2000/svg" viewBox="0 0 779.49 467.11"><g id="layer1"><path id="path56" d="M388.89,152H589.68M489.45,53V251.89" style="stroke:#000;stroke-miterlimit:3.864000082015991;stroke-width:7.241713523864746px"/><path id="path58" d="M218.05,226.93c68,6,78.51,5.61,78.51,23.25h0V364.57c0,24.5,2.3,86-91.84,88.63-130,3.62-118.43-207.61-118.43-207.61S85,9.59,205.71,8.93C315.49,8.44,370,158.87,370,198.53V10.41s-31.27,66.33-42.13,66.33c-6.42,0-45.76-67.64-122.12-67.64S8.93,87,8.93,245.59C8.93,405,119.51,451.29,203.4,453.2c77.52,1.76,94.8-59.95,133.48-59.95,37,0,40,61.11,40,64.93V250.28c0-17.51,11.68-17.55,77.68-23.35Z" style="stroke:#000;stroke-miterlimit:3.864000082015991;stroke-width:7.241713523864746px"/><path id="path60" d="M506.58,5.48l-.25,7.25h.25l63,3.93h.18c17.81.16,24.84,6.3,28.19,12.07a20.91,20.91,0,0,1,2.81,11.43l0,.19v.19l.19,337.31a114,114,0,0,1-7.56,36.31c-3.65,9-9,17.95-16.78,24.5s-17.67,10.7-31.32,10.85l-.81,0c-1,0-2.15-.13-3.22-.19-1.32-.06-2.64-.12-3.93-.25A84.87,84.87,0,0,1,522.45,446c-1.79-.55-3.62-1.22-5.43-1.88-13.27-5.51-24.1-14.64-32.29-24.81a88.44,88.44,0,0,1-14.34-25.19A48.39,48.39,0,0,1,467.48,380c5.73,4.67,15.79,10.62,32.66,10.62,14.87,0,27.62-5,36.56-13.94s14-21.67,14-36.56c0-30-22.75-51-50.84-51-14.55,0-29,4.4-39.72,14.91S442.55,330.94,442.55,354v8.12l.62-.56c2.25,29.36,16.9,52.64,35.72,68.65a116.42,116.42,0,0,0,42.5,23.07c2.23.69,4.53,1.25,6.88,1.75l.9.18c2.3.46,4.63.84,7,1.1,2,.23,3.93.34,5.85.4.85,0,1.66.16,2.53.16.23,0,.42-.06.65-.06,29.3-.11,63.25-6.21,90.38-22,27.38-15.91,47.72-42.16,47.72-80.91V40.38a20.38,20.38,0,0,1,3-11.18c3.42-5.67,10.54-11.72,28.18-11.88h.25l55.75-4.59h.07l.31,0-.31-7.22h-264Z"/></g></svg>