<svg id="svg3367" xmlns="http://www.w3.org/2000/svg" viewBox="0 0 11.3 11.38"><g id="layer1"><g id="g120"><path id="path122" d="M11.3,8.26V8.05A21.94,21.94,0,0,0,0,8.05v.21a21.93,21.93,0,0,1,5.65-.73,21.93,21.93,0,0,1,5.65.73M6.75,4.86l0,.21A2.73,2.73,0,0,0,8.2,3.54H8A2.46,2.46,0,0,1,6.75,4.86m3.41-1.67.1-.27A1.71,1.71,0,0,1,9.83,3a.39.39,0,0,0-.44-.4C9,2.6,8.62,3,7.79,3A3.54,3.54,0,0,1,6.32,2.7l-.07.16a4,4,0,0,0,1.54.24A9.17,9.17,0,0,0,9.4,2.78.22.22,0,0,1,9.64,3a1.89,1.89,0,0,1-.39-.07l-.07.12a1.56,1.56,0,0,0,.45.14.72.72,0,0,1-.32.07c-.25,0-.38,0-.9,0a7.88,7.88,0,0,0-2.21.43A9.15,9.15,0,0,0,7,6.5l-.25,0A6.57,6.57,0,0,1,6.21,5L6.08,5a8.78,8.78,0,0,0,.39,1.38l-.22-.06a5.64,5.64,0,0,1-.38-1.29H5.73A7.39,7.39,0,0,0,6,6.25l-.23-.14a6.31,6.31,0,0,1-.28-1.05H5.38c0,.31.1.58.16.85a4,4,0,0,1-.82-2.44l-.17.14a1.35,1.35,0,0,1-.77-.43l.27,0,.28,0,0-.17A1,1,0,0,1,4,3a.81.81,0,0,1-.38-.11L3.39,3a1.7,1.7,0,0,0,1.17.79c.29,2.16.89,2.77,2.59,3l.13-.24A6.48,6.48,0,0,1,6.4,3.79a6.7,6.7,0,0,1,2-.39c.47,0,.62,0,.9,0a1.64,1.64,0,0,0,.86-.24M5.55,1.55l0,.09.08-.07,0-.09ZM5.76,2.9,5.6,3a4.13,4.13,0,0,0,.72.42l.33-.1,0-.12c-.23,0-.4,0-.87-.32m-.31.23L5.6,3a.34.34,0,0,1-.15-.28c0-.34.45-.66.45-.66L5.84,2c-.2.13-.6.44-.6.77a.47.47,0,0,0,.21.4M6.29,1.6l0,.09.08-.07,0-.09Zm0,.76A.83.83,0,0,0,6.17,2h0a.41.41,0,0,0,.38-.25l.11-.05-.06-.17V1.41l.21-.08,0-.21-.29.15A.43.43,0,0,0,6.19,1L6,1l.07.14.13,0a.28.28,0,0,1,.26.16,1.61,1.61,0,0,1-.37,0l0,.13a1.44,1.44,0,0,0,.42,0v.07c0,.12,0,.35-.26.35l-.18-.05-.11.07a.78.78,0,0,1,.12.41,1,1,0,0,1-.12.43l.19.08a1.15,1.15,0,0,0,.11-.45M4.38,1.65l.22,0,0,.14.12.05a.47.47,0,0,0,.09-.24A.4.4,0,0,0,5,1.69c0,.3-.63.52-.63,1.09a.78.78,0,0,0,0,.32L4.65,3a.76.76,0,0,1,0-.23c0-.5.57-.67.57-1.06a.4.4,0,0,0,.28-.39.5.5,0,0,0,.31.17l0,.09,0,.14-.21.1-.13,0a.76.76,0,0,0-.24.71l.14-.21.14-.34.09,0,.27-.13L6,1.73,5.9,1.57,6,1.33A.46.46,0,0,0,5.48.89c-.43,0-.42.41-.73.53a.51.51,0,0,0-.08-.22l-.19.12.11.14h0A.65.65,0,0,1,4,1.17l-.09.07.16.36ZM5.45,1a.32.32,0,0,1,.36.28A.47.47,0,0,1,5.45,1m-.54.47c.24-.15.25-.36.42-.45l0,.15a.32.32,0,0,1-.3.34ZM4.8,2.85,4.65,3A1.6,1.6,0,0,0,5,3.47l.16-.12a4.77,4.77,0,0,0,.51.42L6,3.67V3.55c-.24,0-.35,0-.79-.44L5,3.23a1.76,1.76,0,0,1-.24-.38m3.55-.09v-.1a2.7,2.7,0,0,0-5.4,0A2.67,2.67,0,0,0,4.69,5.15l-.08-.27A2.43,2.43,0,0,1,3.17,2.66a2.49,2.49,0,0,1,5,0V2.8ZM1.09,10a.62.62,0,0,0,.69.7A1.2,1.2,0,0,0,2.89,9.37a.63.63,0,0,0-.69-.7A1.21,1.21,0,0,0,1.09,10m.24,0a1,1,0,0,1,.83-1.07c.33,0,.49.21.49.54a1,1,0,0,1-.84,1.07c-.31,0-.48-.21-.48-.54m1.61.28c0,.32.16.45.47.45a1.34,1.34,0,0,0,.48-.08V10.4a1.06,1.06,0,0,1-.4.09c-.24,0-.33-.07-.33-.31l0-.19c.63,0,.94-.2.94-.49s-.12-.32-.4-.32c-.49,0-.78.49-.78,1m.27-.39c.07-.26.24-.47.48-.47s.21.06.21.18-.2.27-.69.29m1-.44h.25l-.16.83c-.06.31,0,.45.3.45l.26,0v-.18l-.21,0c-.15,0-.18-.06-.14-.3l.15-.79H5l0-.17H4.66l.11-.53-.22.05-.09.48H4.2Zm1.06-.17L5,10.64h.21l.28-1.43ZM5.4,9l.15-.15-.13-.14-.16.15Zm.38.26-.27,1.43h.21l.06-.31c.07-.36.38-1,.67-1,.14,0,.19.11.14.36l-.18.92h.22l.18-1c.06-.31,0-.49-.3-.49s-.54.32-.68.64h0A5.46,5.46,0,0,0,6,9.21Zm1.07,1.9,0,.22a1.27,1.27,0,0,0,.37.05A.71.71,0,0,0,8,10.79l.3-1.56a2.74,2.74,0,0,0-.43,0A.93.93,0,0,0,7,10.24c0,.29.11.43.31.43.37,0,.6-.44.69-.65H8a5.46,5.46,0,0,0-.19.7.5.5,0,0,1-.55.47.89.89,0,0,1-.38-.08m.49-.63c-.1,0-.16-.08-.16-.28,0-.38.17-.84.63-.84l.23,0,0,.12c-.07.36-.37,1-.67,1m1-.27c0,.32.15.45.47.45a1.32,1.32,0,0,0,.47-.08V10.4a1.06,1.06,0,0,1-.39.09c-.25,0-.33-.07-.33-.31l0-.19c.63,0,.93-.2.93-.49s-.12-.32-.4-.32c-.49,0-.77.49-.77,1m.27-.39c.07-.26.23-.47.47-.47s.21.06.21.18-.2.27-.68.29M9.8,9.21l-.27,1.43h.21l.06-.33c.06-.36.36-1,.64-.92l0-.21c-.28,0-.46.23-.63.6h0c.09-.28.13-.44.16-.57Z"/></g></g></svg>