<svg id="Ebene_1" data-name="Ebene 1" xmlns="http://www.w3.org/2000/svg" viewBox="0 0 283.5 220.3"><path d="M281.43,25.05A25,25,0,0,0,256.38,0H26A25,25,0,0,0,1,25.05v170.2A25,25,0,0,0,26,220.3H256.38a25.16,25.16,0,0,0,25.05-25.05ZM261.3,30.86c0,13.2-12.75,30.64-23,38.7-21,16.55-41.82,33.1-62.62,49.65-8.27,6.7-23.26,21-34.22,21H141c-11,0-25.95-14.32-34.22-21C86,102.66,64.94,86.11,44.14,69.56c-14.09-11.19-23-26.62-23-44.51A5,5,0,0,1,26,20.13H256.38c6-.23,4.92,6.71,4.92,10.73m0,164.39a5,5,0,0,1-4.92,4.92H26a5,5,0,0,1-4.92-4.92V75.15A92,92,0,0,0,31.84,85.43c22.36,17.23,45,34.67,66.64,52.79,11.63,9.84,26.39,21.91,42.5,21.91h.44c16.33,0,30.87-12.07,42.5-21.91,21.69-18.12,44.28-35.56,66.64-52.79A77.39,77.39,0,0,0,261.3,75.15v120.1Z" style="fill:#fff"/><rect y="-29.6" width="283.5" height="283.5" style="fill:none"/></svg>