<?xml version="1.0" encoding="utf-8"?>
<!-- Generator: Adobe Illustrator 21.0.0, SVG Export Plug-In . SVG Version: 6.00 Build 0)  -->
<!DOCTYPE svg PUBLIC "-//W3C//DTD SVG 1.1//EN" "http://www.w3.org/Graphics/SVG/1.1/DTD/svg11.dtd">
<svg version="1.1" id="Ebene_1" xmlns="http://www.w3.org/2000/svg" xmlns:xlink="http://www.w3.org/1999/xlink" x="0px" y="0px"
	 width="283.5px" height="283.5px" viewBox="0 0 283.5 283.5" style="enable-background:new 0 0 283.5 283.5;" xml:space="preserve"
	>
<path d="M141.7,283.5c78.3,0,141.7-63.5,141.7-141.7S220,0,141.7,0S0,63.5,0,141.7S63.5,283.5,141.7,283.5"/>
<path style="fill:#FFFFFF;" d="M177,144c0.8,0.3,3,1.1,3,2.5c0,0.8-0.8,1.9-1.6,2.7c-1.1,1.4-10,11.3-11.3,14.8
	c-1.9,5.2,0.4,9.6,4.2,11.8c0.8,0.3,1.5,0.7,2.1,1c3.8,1.9,4.2,2,6.7,2c5.8,0,8-5.2,12.6-15.9c2.2-4.7,4.1-8.8,6-8.8
	c1.6,0,8.5,12.1,9.1,13.4c2.7,6,3,6.6,5.2,8.8c1.6,1.6,3,2.5,4.9,2.5c3,0,8.5-3.3,8.8-3.6c1.7-1.4,4.1-4.9,4.1-7.7
	c0-0.3,0-4.9-6-11.5c-1.1-1.4-7.7-9.6-7.7-10.2c0-1.6,0.5-1.9,3.6-2.5c1.6-0.3,8-2.2,9.9-2.5c6.9-1.6,10.2-4.4,10.2-9.3
	c0-4.9-3.8-13.2-11.3-13.2c-1.9,0-3.8,0.8-5.8,1.9c-4.1,2.5-12.3,5.8-13.7,5.8c-1.9,0-2.2-2.2-2.2-4.1c0-1.1,1.1-12.4,1.1-14.6
	c0-2.2-0.3-5.8-2.2-7.7c-1.1-1.4-5.2-3.3-9.6-3.3c-6.3,0-11,3-11,11.3c0,1.6,1.6,14.5,1.6,15.1c0,3.3-1.1,3.3-1.9,3.3
	c-1.1,0-11-4.1-13.2-4.9c-2.5-0.8-4.9-1.6-7.7-1.6c-6.6,0-10.4,9.9-10.4,13.2c0,3,1.9,6,3.6,6.9c1.6,1.1,3.3,1.1,5.2,1.6
	C163.3,141.3,175.1,143.5,177,144"/>
<path style="fill:#FFFFFF;" d="M69.3,144c0.8,0.3,3,1.1,3,2.5c0,0.8-0.8,1.9-1.6,2.7c-1.1,1.4-10,11.3-11.3,14.8
	c-1.9,5.2,0.4,9.6,4.2,11.8c0.8,0.3,1.5,0.7,2.1,1c3.8,1.9,4.2,2,6.7,2c5.8,0,8-5.2,12.6-15.9c2.2-4.7,4.1-8.8,6-8.8
	c1.6,0,8.5,12.1,9.1,13.4c2.7,6,3,6.6,5.2,8.8c1.6,1.6,3,2.5,4.9,2.5c3,0,8.5-3.3,8.8-3.6c1.7-1.4,4.1-4.9,4.1-7.7
	c0-0.3,0-4.9-6-11.5c-1.1-1.4-7.7-9.6-7.7-10.2c0-1.6,0.5-1.9,3.6-2.5c1.6-0.3,8-2.2,9.9-2.5c6.9-1.6,10.2-4.4,10.2-9.3
	c0-4.9-3.8-13.2-11.3-13.2c-1.9,0-3.8,0.8-5.8,1.9c-4.1,2.5-12.3,5.8-13.7,5.8c-1.9,0-2.2-2.2-2.2-4.1c0-1.1,1.1-12.4,1.1-14.6
	c0-2.2-0.3-5.8-2.2-7.7c-1.1-1.4-5.2-3.3-9.6-3.3c-6.3,0-11,3-11,11.3c0,1.6,1.6,14.5,1.6,15.1c0,3.3-1.1,3.3-1.9,3.3
	c-1.1,0-11-4.1-13.2-4.9c-2.5-0.8-4.9-1.6-7.7-1.6c-6.6,0-10.4,9.9-10.4,13.2c0,3,1.9,6,3.6,6.9c1.6,1.1,3.3,1.1,5.2,1.6
	C55.5,141.3,67.3,143.5,69.3,144"/>
</svg>
