<?xml version="1.0" encoding="utf-8"?>
<!-- Generator: Adobe Illustrator 21.0.0, SVG Export Plug-In . SVG Version: 6.00 Build 0)  -->
<!DOCTYPE svg PUBLIC "-//W3C//DTD SVG 1.1//EN" "http://www.w3.org/Graphics/SVG/1.1/DTD/svg11.dtd">
<svg version="1.1" id="Ebene_1" xmlns="http://www.w3.org/2000/svg" xmlns:xlink="http://www.w3.org/1999/xlink" x="0px" y="0px"
	 width="283.5px" height="283.5px" viewBox="0 0 283.5 283.5" style="enable-background:new 0 0 283.5 283.5;" xml:space="preserve"
	>
<path d="M141.7,283.5c78.3,0,141.7-63.5,141.7-141.7S220,0,141.7,0S0,63.5,0,141.7S63.5,283.5,141.7,283.5"/>
<path style="fill:#FFFFFF;" d="M127,211.3v-63.5h-21.3v-24.7H127v-18.2c0-21.1,13-32.6,31.9-32.6c8.9,0,16.7,0.6,19,1v22.1l-13,0.1
	c-10.3,0-12.3,4.8-12.3,11.9v15.8H177l-3.2,24.7h-21.2v63.5H127z"/>
<rect x="0" y="0" style="fill:none;" width="283.5" height="283.5"/>
</svg>
