<?xml version="1.0" encoding="utf-8"?>
<!-- Generator: Adobe Illustrator 21.0.0, SVG Export Plug-In . SVG Version: 6.00 Build 0)  -->
<!DOCTYPE svg PUBLIC "-//W3C//DTD SVG 1.1//EN" "http://www.w3.org/Graphics/SVG/1.1/DTD/svg11.dtd">
<svg version="1.1" id="Ebene_1" xmlns="http://www.w3.org/2000/svg" xmlns:xlink="http://www.w3.org/1999/xlink" x="0px" y="0px"
	 width="283.5px" height="283.5px" viewBox="0 0 283.5 283.5" style="enable-background:new 0 0 283.5 283.5;" xml:space="preserve"
	>
<path d="M141.7,283.5c78.3,0,141.7-63.5,141.7-141.7S220,0,141.7,0S0,63.5,0,141.7S63.5,283.5,141.7,283.5"/>
<g>
	<path style="fill:#FFFFFF;" d="M161.4,83.1c-0.6-1.2-1.5-2.5-2.5-3.9c-1.1-1.4-2.4-2.6-4.1-3.8c-1.7-1.2-3.6-2.2-5.9-3
		c-2.2-0.8-4.8-1.2-7.6-1.2c-4.3,0-7.8,0.7-10.4,2c-2.6,1.4-4.6,3-6,4.8c-1.4,1.9-2.4,3.7-2.9,5.6c-0.5,1.9-0.7,3.3-0.7,4.3
		c0,4.6,1.5,8.2,4.4,10.7c2.9,2.5,6.5,4.9,10.7,7l20.5,10.4c5.2,2.7,9.5,6.1,12.9,10.1c3.4,4,5.1,9.3,5.1,15.7
		c0,5.7-1.5,10.5-4.5,14.5c-3,4-6.9,7.3-11.7,9.9c4.7,3.2,8,6.6,10,10c1.9,3.5,2.9,7.9,2.9,13.2c0,5.2-1,9.7-2.9,13.5
		c-1.9,3.8-4.5,6.9-7.8,9.5c-3.3,2.5-7,4.4-11.3,5.6c-4.2,1.2-8.6,1.8-13,1.8c-8.3,0-15.8-1.7-22.4-5.2c-6.6-3.5-11.4-8.9-14.4-16.2
		l12.3-6c2.1,5.8,5.4,10,9.9,12.5c4.5,2.5,9.4,3.7,14.6,3.7c2.5,0,5-0.3,7.5-0.9c2.5-0.6,4.9-1.7,7-3.2c2.1-1.5,3.8-3.4,5.1-5.9
		c1.3-2.4,2-5.4,2-9c0-3.8-1.2-7-3.5-9.6c-2.4-2.5-5.5-4.8-9.5-6.8l-25.5-12.5c-4.8-2.4-8.8-5.5-12-9.4c-3.2-3.9-4.7-8.8-4.7-14.8
		c0-6.2,1.8-11.3,5.5-15.3c3.7-4,8.3-7.2,13.9-9.7c-1.2-0.9-2.7-1.9-4.4-3.1c-1.7-1.2-3.3-2.6-4.7-4.4c-1.5-1.7-2.7-3.8-3.7-6.2
		c-1-2.4-1.5-5.3-1.5-8.6c0-4.8,0.9-9.1,2.7-12.7c1.8-3.7,4.2-6.7,7.2-9.2c3-2.5,6.4-4.3,10.3-5.6c3.9-1.2,8-1.9,12.4-1.9
		c8.3,0,15.2,1.7,20.8,5.1c5.6,3.4,9.3,7.5,11.2,12.4L161.4,83.1z M130,120.1c-3.6,1.5-6.8,3.5-9.6,6c-2.8,2.5-4.2,5.7-4.2,9.7
		c0,2.6,0.7,4.9,2,6.8c1.3,1.9,2.9,3.6,4.8,5c1.9,1.4,4,2.7,6.2,3.8c2.2,1.1,4.3,2.1,6.3,3l12.3,6c1.6-0.6,3.2-1.5,4.8-2.6
		c1.6-1.1,3.1-2.4,4.4-3.8c1.3-1.4,2.4-3,3.2-4.7c0.8-1.7,1.2-3.5,1.2-5.4c0-2.7-0.5-5.1-1.6-7.2c-1.1-2-2.4-3.9-4.1-5.5
		c-1.7-1.6-3.6-3-5.7-4.2c-2.1-1.2-4.2-2.3-6.3-3.3l-10.6-4.8L130,120.1z"/>
</g>
</svg>
