<?xml version="1.0" encoding="utf-8"?>
<!-- Generator: Adobe Illustrator 21.0.0, SVG Export Plug-In . SVG Version: 6.00 Build 0)  -->
<!DOCTYPE svg PUBLIC "-//W3C//DTD SVG 1.1//EN" "http://www.w3.org/Graphics/SVG/1.1/DTD/svg11.dtd">
<svg version="1.1" id="Ebene_1" xmlns="http://www.w3.org/2000/svg" xmlns:xlink="http://www.w3.org/1999/xlink" x="0px" y="0px"
	 width="283.5px" height="283.5px" viewBox="0 0 283.5 283.5" style="enable-background:new 0 0 283.5 283.5;" xml:space="preserve"
	>
<path d="M141.7,283.5c78.3,0,141.7-63.5,141.7-141.7S220,0,141.7,0S0,63.5,0,141.7S63.5,283.5,141.7,283.5"/>
<path style="fill:#FFFFFF;" d="M201.9,105.2c0-5.9-4.8-10.7-10.7-10.7H92.3c-5.9,0-10.7,4.8-10.7,10.7v73c0,5.9,4.8,10.7,10.7,10.7
	h98.8c5.9,0,10.7-4.8,10.7-10.7V105.2z M193.3,107.7c0,5.7-5.5,13.2-9.9,16.6c-9,7.1-18,14.2-26.9,21.3c-3.6,2.9-10,9.1-14.7,9.1
	h-0.1h-0.1c-4.7,0-11.1-6.2-14.7-9.1c-8.9-7.1-17.9-14.2-26.9-21.3c-6-4.8-9.9-11.4-9.9-19.1c0-1.2,1-2.2,2.2-2.2h98.8
	C193.7,103.1,193.3,106,193.3,107.7 M193.3,178.2c0,1.1-1,2.1-2.1,2.1H92.3c-1.2,0-2.2-1-2.2-2.1v-51.6c1.4,1.6,3,3.1,4.6,4.4
	c9.6,7.4,19.3,14.9,28.6,22.7c5,4.2,11.3,9.4,18.3,9.4h0.1h0.1c7,0,13.2-5.2,18.3-9.4c9.3-7.8,19-15.3,28.6-22.7
	c1.7-1.3,3.2-2.8,4.6-4.4V178.2z"/>
<rect x="0" y="0" style="fill:none;" width="283.5" height="283.5"/>
</svg>
