<?xml version="1.0" encoding="utf-8"?>
<!-- Generator: Adobe Illustrator 21.0.0, SVG Export Plug-In . SVG Version: 6.00 Build 0)  -->
<!DOCTYPE svg PUBLIC "-//W3C//DTD SVG 1.1//EN" "http://www.w3.org/Graphics/SVG/1.1/DTD/svg11.dtd">
<svg version="1.1" id="Ebene_1" xmlns="http://www.w3.org/2000/svg" xmlns:xlink="http://www.w3.org/1999/xlink" x="0px" y="0px"
	 width="283.5px" height="283.5px" viewBox="0 0 283.5 283.5" style="enable-background:new 0 0 283.5 283.5;" xml:space="preserve"
	>
<path d="M141.7,283.5c78.3,0,141.7-63.5,141.7-141.7S220,0,141.7,0S0,63.5,0,141.7S63.5,283.5,141.7,283.5"/>
<path style="fill:#FFFFFF;" d="M169.1,142.5c0.6,0.2,2.3,0.8,2.3,1.9c0,0.6-0.6,1.5-1.3,2.1c-0.8,1-7.7,8.6-8.6,11.3
	c-1.5,4,0.3,7.3,3.2,9c0.6,0.2,1.2,0.6,1.6,0.8c2.9,1.5,3.2,1.5,5.1,1.5c4.4,0,6.1-4,9.6-12.1c1.7-3.6,3.1-6.7,4.6-6.7
	c1.3,0,6.5,9.2,6.9,10.2c2.1,4.6,2.3,5,4,6.7c1.3,1.3,2.3,1.9,3.8,1.9c2.3,0,6.5-2.5,6.7-2.7c1.3-1,3.1-3.8,3.1-5.9
	c0-0.2,0-3.8-4.6-8.8c-0.8-1-5.9-7.3-5.9-7.7c0-1.3,0.4-1.5,2.7-1.9c1.3-0.2,6.1-1.7,7.5-1.9c5.2-1.3,7.7-3.3,7.7-7.1
	c0-3.8-2.9-10-8.6-10c-1.5,0-2.9,0.6-4.4,1.5c-3.1,1.9-9.4,4.4-10.5,4.4c-1.5,0-1.7-1.7-1.7-3.1c0-0.8,0.8-9.4,0.8-11.1
	c0-1.7-0.2-4.4-1.7-5.9c-0.8-1-4-2.5-7.3-2.5c-4.8,0-8.4,2.3-8.4,8.6c0,1.3,1.3,11.1,1.3,11.5c0,2.5-0.8,2.5-1.5,2.5
	c-0.8,0-8.4-3.1-10-3.8c-1.9-0.6-3.8-1.3-5.9-1.3c-5,0-7.9,7.5-7.9,10c0,2.3,1.5,4.6,2.7,5.2c1.3,0.8,2.5,0.8,4,1.3
	C158.6,140.4,167.6,142.1,169.1,142.5"/>
<path style="fill:#FFFFFF;" d="M87,142.5c0.6,0.2,2.3,0.8,2.3,1.9c0,0.6-0.6,1.5-1.3,2.1c-0.8,1-7.7,8.6-8.6,11.3
	c-1.5,4,0.3,7.3,3.2,9c0.6,0.2,1.2,0.6,1.6,0.8c2.9,1.5,3.2,1.5,5.1,1.5c4.4,0,6.1-4,9.6-12.1c1.7-3.6,3.1-6.7,4.6-6.7
	c1.3,0,6.5,9.2,6.9,10.2c2.1,4.6,2.3,5,4,6.7c1.3,1.3,2.3,1.9,3.8,1.9c2.3,0,6.5-2.5,6.7-2.7c1.3-1,3.1-3.8,3.1-5.9
	c0-0.2,0-3.8-4.6-8.8c-0.8-1-5.9-7.3-5.9-7.7c0-1.3,0.4-1.5,2.7-1.9c1.3-0.2,6.1-1.7,7.5-1.9c5.2-1.3,7.7-3.3,7.7-7.1
	c0-3.8-2.9-10-8.6-10c-1.5,0-2.9,0.6-4.4,1.5c-3.1,1.9-9.4,4.4-10.5,4.4c-1.5,0-1.7-1.7-1.7-3.1c0-0.8,0.8-9.4,0.8-11.1
	c0-1.7-0.2-4.4-1.7-5.9c-0.8-1-4-2.5-7.3-2.5c-4.8,0-8.4,2.3-8.4,8.6c0,1.3,1.3,11.1,1.3,11.5c0,2.5-0.8,2.5-1.5,2.5
	c-0.8,0-8.4-3.1-10-3.8c-1.9-0.6-3.8-1.3-5.9-1.3c-5,0-7.9,7.5-7.9,10c0,2.3,1.5,4.6,2.7,5.2c1.3,0.8,2.5,0.8,4,1.3
	C76.5,140.4,85.5,142.1,87,142.5"/>
</svg>
