<?xml version="1.0" encoding="utf-8"?>
<!-- Generator: Adobe Illustrator 21.0.0, SVG Export Plug-In . SVG Version: 6.00 Build 0)  -->
<!DOCTYPE svg PUBLIC "-//W3C//DTD SVG 1.1//EN" "http://www.w3.org/Graphics/SVG/1.1/DTD/svg11.dtd">
<svg version="1.1" id="Ebene_1" xmlns="http://www.w3.org/2000/svg" xmlns:xlink="http://www.w3.org/1999/xlink" x="0px" y="0px"
	 width="283.5px" height="283.5px" viewBox="0 0 283.5 283.5" style="enable-background:new 0 0 283.5 283.5;" xml:space="preserve"
	>
<path d="M141.7,283.5c78.3,0,141.7-63.5,141.7-141.7S220,0,141.7,0S0,63.5,0,141.7S63.5,283.5,141.7,283.5"/>
<g>
	<g>
		<path style="fill:#FFFFFF;" d="M182.2,89H96.6c-4.1,0-7.4,3.2-7.4,7.2v85.9c0,4,3.3,7.2,7.4,7.2h85.6c4.1,0,7.4-3.2,7.4-7.2V96.2
			C189.6,92.2,186.3,89,182.2,89z M119,174.6h-14.9v-47.9H119V174.6z M111.5,120.1c-4.8,0-8.6-3.9-8.6-8.6c0-4.8,3.9-8.6,8.6-8.6
			c4.8,0,8.6,3.9,8.6,8.6C120.2,116.2,116.3,120.1,111.5,120.1z M174.8,174.6h-14.9v-23.3c0-5.6-0.1-12.7-7.7-12.7
			c-7.7,0-8.9,6.1-8.9,12.3v23.7h-14.9v-47.9h14.3v6.5h0.2c2-3.8,6.8-7.7,14.1-7.7c15.1,0,17.9,9.9,17.9,22.8V174.6z"/>
	</g>
	<g>
		<path style="fill:#FFFFFF;" d="M195.1,172.7c0.5-0.1,0.7-0.3,0.7-0.8c0-0.5-0.3-0.8-1-0.8h-1.1v2.8h0.4v-1.2h0.5l0,0l0.8,1.2h0.4
			L195.1,172.7L195.1,172.7z M194.7,172.4h-0.5v-1h0.6c0.3,0,0.7,0.1,0.7,0.5C195.5,172.3,195.1,172.4,194.7,172.4z"/>
		<path style="fill:#FFFFFF;" d="M194.7,169.9c-1.5,0-2.7,1.2-2.7,2.7c0,1.5,1.2,2.7,2.7,2.7c1.5,0,2.7-1.2,2.7-2.7
			C197.4,171,196.2,169.9,194.7,169.9z M194.7,174.8c-1.3,0-2.3-1-2.3-2.3c0-1.3,1-2.3,2.3-2.3c1.3,0,2.3,1,2.3,2.3
			C197,173.8,196,174.8,194.7,174.8z"/>
	</g>
</g>
</svg>
