<?xml version="1.0" encoding="utf-8"?>
<!-- Generator: Adobe Illustrator 21.0.0, SVG Export Plug-In . SVG Version: 6.00 Build 0)  -->
<!DOCTYPE svg PUBLIC "-//W3C//DTD SVG 1.1//EN" "http://www.w3.org/Graphics/SVG/1.1/DTD/svg11.dtd">
<svg version="1.1" id="Ebene_1" xmlns="http://www.w3.org/2000/svg" xmlns:xlink="http://www.w3.org/1999/xlink" x="0px" y="0px"
	 width="283.5px" height="283.5px" viewBox="0 0 283.5 283.5" style="enable-background:new 0 0 283.5 283.5;" xml:space="preserve"
	>
<path d="M141.7,283.5c78.3,0,141.7-63.5,141.7-141.7S220,0,141.7,0S0,63.5,0,141.7S63.5,283.5,141.7,283.5"/>
<g>
	<path style="fill:#FFFFFF;" d="M84.7,166.4l9.6,16.7l0,0c1.9,3.8,5.8,6.3,10.3,6.3l0,0l0,0h64l-13.3-23H84.7z"/>
	<path style="fill:#FFFFFF;" d="M198.8,166.5c0-2.3-0.7-4.4-1.8-6.2l-37.5-65.2c-1.9-3.6-5.8-6.1-10.2-6.1h-19.8l57.9,100.3
		l9.1-15.8C198.3,170.5,198.8,169.1,198.8,166.5z"/>
	<polygon style="fill:#FFFFFF;" points="145.9,150.1 120,105.3 94.1,150.1 	"/>
</g>
</svg>
