<?xml version="1.0" encoding="utf-8"?>
<!-- Generator: Adobe Illustrator 21.0.0, SVG Export Plug-In . SVG Version: 6.00 Build 0)  -->
<!DOCTYPE svg PUBLIC "-//W3C//DTD SVG 1.1//EN" "http://www.w3.org/Graphics/SVG/1.1/DTD/svg11.dtd">
<svg version="1.1" id="Ebene_1" xmlns="http://www.w3.org/2000/svg" xmlns:xlink="http://www.w3.org/1999/xlink" x="0px" y="0px"
	 width="283.5px" height="283.5px" viewBox="0 0 283.5 283.5" style="enable-background:new 0 0 283.5 283.5;" xml:space="preserve"
	>
<path d="M141.7,283.5c78.3,0,141.7-63.5,141.7-141.7S220,0,141.7,0S0,63.5,0,141.7S63.5,283.5,141.7,283.5"/>
<path style="fill:#FFFFFF;" d="M205.9,101.7c0-6.2-5-11.2-11.2-11.2h-103c-6.2,0-11.2,5-11.2,11.2v76.1c0,6.2,5,11.2,11.2,11.2h103
	c6.1,0,11.2-5,11.2-11.2V101.7z M196.9,104.3c0,5.9-5.7,13.7-10.3,17.3c-9.4,7.4-18.7,14.8-28,22.2c-3.7,3-10.4,9.4-15.3,9.4h-0.1
	h-0.1c-4.9,0-11.6-6.4-15.3-9.4c-9.3-7.4-18.7-14.8-28-22.2c-6.3-5-10.3-11.9-10.3-19.9c0-1.2,1-2.2,2.2-2.2h103
	C197.4,99.4,196.9,102.5,196.9,104.3 M196.9,177.8c0,1.2-1,2.2-2.2,2.2h-103c-1.2,0-2.2-1-2.2-2.2v-53.7c1.5,1.7,3.1,3.2,4.8,4.6
	c10,7.7,20.1,15.5,29.8,23.6c5.2,4.4,11.8,9.8,19,9.8h0.1h0.1c7.3,0,13.8-5.4,19-9.8c9.7-8.1,19.8-15.9,29.8-23.6
	c1.7-1.4,3.4-2.9,4.8-4.6V177.8z"/>
<rect x="0" y="0" style="fill:none;" width="283.5" height="283.5"/>
</svg>
