<?xml version="1.0" encoding="utf-8"?>
<!-- Generator: Adobe Illustrator 21.0.2, SVG Export Plug-In . SVG Version: 6.00 Build 0)  -->
<!DOCTYPE svg PUBLIC "-//W3C//DTD SVG 1.1//EN" "http://www.w3.org/Graphics/SVG/1.1/DTD/svg11.dtd">
<svg version="1.1" id="Ebene_1" xmlns="http://www.w3.org/2000/svg" xmlns:xlink="http://www.w3.org/1999/xlink" x="0px" y="0px"
	 width="283.5px" height="283.5px" viewBox="0 0 283.5 283.5" style="enable-background:new 0 0 283.5 283.5;" xml:space="preserve"
	>
<path d="M141.7,283.5c78.3,0,141.7-63.5,141.7-141.7S220,0,141.7,0S0,63.5,0,141.7S63.5,283.5,141.7,283.5"/>
<g>
	<path style="fill:#FFFFFF;" d="M140,91.6c15.8,0,17.6,0.1,23.8,0.3c5.8,0.3,8.9,1.2,11,2c2.8,1.1,4.7,2.3,6.8,4.4
		c2.1,2.1,3.3,4,4.4,6.8c0.8,2.1,1.8,5.2,2,11c0.3,6.2,0.3,8.1,0.3,23.8s-0.1,17.6-0.3,23.8c-0.3,5.8-1.2,8.9-2,11
		c-1.1,2.8-2.3,4.7-4.4,6.8c-2.1,2.1-4,3.3-6.8,4.4c-2.1,0.8-5.2,1.8-11,2c-6.2,0.3-8.1,0.3-23.8,0.3s-17.6-0.1-23.8-0.3
		c-5.8-0.3-8.9-1.2-11-2c-2.8-1.1-4.7-2.3-6.8-4.4c-2.1-2.1-3.3-4-4.4-6.8c-0.8-2.1-1.8-5.2-2-11c-0.3-6.2-0.3-8.1-0.3-23.8
		s0.1-17.6,0.3-23.8c0.3-5.8,1.2-8.9,2-11c1.1-2.8,2.3-4.7,4.4-6.8c2.1-2.1,4-3.3,6.8-4.4c2.1-0.8,5.2-1.8,11-2
		C122.4,91.7,124.2,91.6,140,91.6 M140,81c-16,0-18,0.1-24.3,0.4c-6.3,0.3-10.6,1.3-14.3,2.7c-3.9,1.5-7.2,3.5-10.5,6.8
		c-3.3,3.3-5.3,6.6-6.8,10.5c-1.5,3.8-2.5,8-2.7,14.3C81.1,122,81,124,81,140c0,16,0.1,18,0.4,24.3c0.3,6.3,1.3,10.6,2.7,14.3
		c1.5,3.9,3.5,7.2,6.8,10.5c3.3,3.3,6.6,5.3,10.5,6.8c3.8,1.5,8,2.5,14.3,2.7c6.3,0.3,8.3,0.4,24.3,0.4s18-0.1,24.3-0.4
		c6.3-0.3,10.6-1.3,14.3-2.7c3.9-1.5,7.2-3.5,10.5-6.8c3.3-3.3,5.3-6.6,6.8-10.5c1.5-3.8,2.5-8,2.7-14.3c0.3-6.3,0.4-8.3,0.4-24.3
		s-0.1-18-0.4-24.3c-0.3-6.3-1.3-10.6-2.7-14.3c-1.5-3.9-3.5-7.2-6.8-10.5c-3.3-3.3-6.6-5.3-10.5-6.8c-3.8-1.5-8-2.5-14.3-2.7
		C158,81.1,156,81,140,81L140,81z"/>
	<path style="fill:#FFFFFF;" d="M140,109.7c-16.7,0-30.3,13.6-30.3,30.3s13.6,30.3,30.3,30.3s30.3-13.6,30.3-30.3
		S156.7,109.7,140,109.7z M140,159.7c-10.9,0-19.7-8.8-19.7-19.7c0-10.9,8.8-19.7,19.7-19.7c10.9,0,19.7,8.8,19.7,19.7
		C159.7,150.9,150.9,159.7,140,159.7z"/>
	<circle style="fill:#FFFFFF;" cx="171.5" cy="108.5" r="7.1"/>
</g>
</svg>
