<?xml version="1.0" encoding="utf-8"?>
<!-- Generator: Adobe Illustrator 13.0.2, SVG Export Plug-In . SVG Version: 6.00 Build 14948)  -->
<!DOCTYPE svg PUBLIC "-//W3C//DTD SVG 1.1//EN" "http://www.w3.org/Graphics/SVG/1.1/DTD/svg11.dtd">
<svg version="1.1" xmlns="http://www.w3.org/2000/svg" xmlns:xlink="http://www.w3.org/1999/xlink" x="0px" y="0px" width="750px"
	 height="100px" viewBox="0 0 750 100" enable-background="new 0 0 750 100" xml:space="preserve">
<g id="BoundingBox">
	<rect fill="none" width="750" height="100"/>
</g>
<g id="Logo">
	<path d="M676.8252,22.7114v17.3462h-7.3584c-6.7109,0-9.5225,2.9453-9.5225,9.9629v27.9897h-18.9512V22.9751h12.6943l2.96,6.1064
		c3.8789-4.4888,8.6094-6.3701,15.1582-6.3701H676.8252z M591.7246,44.4912h22.2451c-1.6641-5.5-5.6289-8.4678-11.3447-8.4678
		C597.0957,36.0234,593.2578,39.0259,591.7246,44.4912z M632.249,54.9902h-40.8613c1.2402,6.3149,5.25,9.5771,11.2373,9.5771
		c4.4268,0,8.124-1.9395,9.9492-5.1641h18.8623c-3.8721,12.5605-15.0068,20.4087-28.8115,20.4087
		c-17.1699,0-29.8965-12.5503-29.8965-29.3657c0-16.8691,12.623-29.2744,29.8965-29.2744c17.7354,0,30.0166,12.6553,30.0166,28.7969
		C632.6416,51.6279,632.4971,53.2881,632.249,54.9902z M547.0186,48.8892c0-6.9487-4.8857-11.9941-11.707-11.9941
		c-6.8066,0-11.7471,5.0454-11.7471,11.9941c0,7.0142,4.8818,12.0576,11.7441,12.0576
		C542.1162,60.9468,547.0186,55.9033,547.0186,48.8892z M564.7432,22.9751V71.895c0,17.2905-11.3242,28.0054-29.5,28.0054
		c-15.6133,0-26.5439-7.8721-29.0801-20.9155h18.29c1.3164,3.6797,6.0117,5.6606,10.6143,5.6606
		c6.3525,0,11.458-4.0376,11.458-10.5835v-1.6396c-4.1377,2.625-9.0469,4.1338-14.3623,4.1338
		c-15.7744,0-27.502-11.7407-27.502-27.667c0-15.6909,11.7275-27.6763,27.502-27.6763c6.6631,0,12.6953,2.3911,17.3594,6.3789
		l2.4053-4.6167H564.7432z M475.6953,21.3491c-7.1143,0-13.2256,2.7334-17.3223,7.3003l-2.6045-5.6743h-13.2939v55.0352h18.9541
		V48.6187c0-7.0039,3.3975-11.1313,9.3086-11.1313c4.7715,0,7.1797,3.1782,7.1797,9.5811v30.9419h18.9551V44.4502
		C496.8721,30.4302,488.4766,21.3491,475.6953,21.3491z M411.8652,22.9717h18.9541v55.0352h-18.9541V22.9717z M412.0098,0h18.6621
		v16.0903h-18.6621V0z M399.6279,22.7114c-6.5527,0-11.2793,1.8813-15.1582,6.3701l-2.9561-6.1064h-12.7021v55.0352h18.958V50.0205
		c0-7.0176,2.8115-9.9629,9.5225-9.9629h7.3555V22.7114H399.6279z M341.6924,50.4873c0-7.2261-5.2197-12.5918-12.3193-12.5918
		c-7.1006,0-12.3203,5.3657-12.3203,12.5918c0,7.2314,5.2197,12.5986,12.3203,12.5986
		C336.4277,63.0859,341.6924,57.7188,341.6924,50.4873z M360.7637,50.4907c0,17.1465-12.0293,29.3799-28.8555,29.3799
		c-4.9746,0-9.5322-1.3091-13.415-3.6553v21.6655h-18.7373V22.9751h12.8877l2.373,4.3721
		c4.5273-3.9136,10.3525-6.1772,16.8916-6.1772C348.7344,21.1699,360.7637,33.3433,360.7637,50.4907z M267.3408,79.812
		c14.6279,0,24.332-7.5273,24.332-19.0273c0-13.9575-11.5576-15.7646-20.25-17.3096c-5.2295-0.9287-9.4395-1.6606-9.4395-4.792
		c0-2.5493,2.043-4.0552,5.082-4.0552c3.4346,0,5.7979,1.6348,5.7979,5.1489h17.749c-0.2139-11.1519-9.2988-18.6069-23.3125-18.6069
		c-14.1006,0-23.499,7.1226-23.499,18.1519c0,13.3481,11.3096,15.9233,19.8438,17.3081c5.2881,0.875,9.4531,1.7813,9.4531,4.9541
		c0,2.8457-2.6289,4.2583-5.3984,4.2583c-3.5967,0-6.3975-1.8535-6.3975-5.8774h-18.2451
		C243.2285,71.8916,252.3447,79.812,267.3408,79.812z M194.3018,78.0103h18.9551V3.1021h-18.9551V78.0103z M145.0303,44.4912h22.248
		c-1.6631-5.5-5.6289-8.4678-11.3477-8.4678C150.4053,36.0234,146.5635,39.0259,145.0303,44.4912z M185.5615,54.9902h-40.8652
		c1.2402,6.3149,5.25,9.5771,11.2344,9.5771c4.4307,0,8.127-1.9395,9.9492-5.1641h18.8652
		c-3.876,12.5605-15.0068,20.4087-28.8145,20.4087c-17.1699,0-29.8896-12.5503-29.8896-29.3657
		c0-16.8691,12.6191-29.2744,29.8896-29.2744c17.7383,0,30.0205,12.6553,30.0205,28.7969
		C185.9512,51.6279,185.8066,53.2881,185.5615,54.9902z M127.3164,78.0103L109.0293,48.958l17.0537-25.9829h-20.6294L97.1372,36.833
		l-7.9478-13.8579H68.2642l16.915,26.4805l-18.252,28.5547h20.9321l9.2295-16.3022l9.0469,16.3022H127.3164z M43.8076,50.4756
		c0-7.1416-5.2192-12.5073-12.3198-12.5073c-7.1416,0-12.3159,5.3657-12.3159,12.5073c0,7.188,5.2192,12.5518,12.3159,12.5518
		C38.5884,63.0273,43.8076,57.6636,43.8076,50.4756z M61.8354,22.915v55.0332H47.1836l-1.6226-3.8931
		c-4.5098,3.6519-10.2148,5.7568-16.6055,5.7568c-16.8291,0-28.8555-12.2783-28.8555-29.3813
		c0-17.043,12.0264-29.1748,28.8555-29.1748c6.4805,0,12.2715,2.167,16.8154,5.9155l1.9365-4.2563H61.8354z"/>
	<polygon fill="#0000FF" points="687.8867,77.9414 749.9951,77.9414 749.9951,63.9956 687.8867,63.9956 687.8867,70.9683 
		687.8867,77.9414 	"/>
</g>
</svg>
