<svg id="svg4015" xmlns="http://www.w3.org/2000/svg" viewBox="0 0 1012.48 192"><path id="path3963" d="M95.42,0C35.44,0,0,44.59,0,96s35.44,96,95.42,96c37.5,0,62.31-16.55,77.37-39.58L144.45,127.9c-9.47,16.24-26.28,26.87-49,26.87-32.8,0-53.78-23.63-53.78-58.77s21-58.79,53.78-58.79c22.75,0,39.56,10.64,49,26.89l28.34-24.52C157.73,16.55,132.92,0,95.42,0ZM369.51,0c-56.12,0-95.4,39.58-95.4,96s39.28,96,95.4,96,95.69-39.58,95.69-96S425.63,0,369.51,0Zm192,3-3.28,37.79h62.34V189.05h43.13V40.76h62.92L723.3,3ZM834.68,3V7.1c0,31,8.55,49.91,28.93,73.24l17.73,20.08c16.84,18.91,21,26.89,21,43.72v44.91h42.53V144.14c0-16.83,4.13-24.81,21-43.72l17.73-20.08c20.38-23.33,28.93-42.23,28.93-73.24V3H970V6.21c0,26.58-4.72,36.63-21.26,55.53l-12.4,14.18a155.12,155.12,0,0,0-12.11,16.24,156.13,156.13,0,0,0-12.12-16.24l-12.4-14.18c-16.54-18.9-21.29-28.95-21.29-55.53V3Zm-465.17,34c32.49,0,54.92,24.2,54.92,59.06S402,155.08,369.51,155.08c-32.2,0-54.64-24.23-54.64-59.08S337.31,36.94,369.51,36.94Z" style="fill:#3d2461"/></svg>