<svg id="Layer_1" data-name="Layer 1" xmlns="http://www.w3.org/2000/svg" viewBox="0 0 99 20"><path d="M43.21,4.94A6.81,6.81,0,0,0,40,4.35a14.85,14.85,0,0,0-4.58.7.46.46,0,0,0-.34.42v.06l.2,1v0a.43.43,0,0,0,.4.3l.12,0,.33-.08a14.88,14.88,0,0,1,3.68-.56,5.1,5.1,0,0,1,1.9.25c.66.26.67.69.68,1.4V8.92H42a23,23,0,0,0-3.55.26c-2.14.33-3.9.85-3.9,3.84,0,3.8,3.47,3.8,5.14,3.81a14.64,14.64,0,0,0,2.86-.31c1.55-.37,2-.87,1.93-2.44V7.76C44.43,6.8,44.43,5.6,43.21,4.94Zm-.85,9.76a8.5,8.5,0,0,1-2.7.4v0c-1.53,0-3-.18-3-2.17,0-1.58.84-1.77,1.89-2l.07,0a29.45,29.45,0,0,1,3.77-.25Zm19.4-6.94v6.32c0,1.57-.37,2.07-1.93,2.43a13.62,13.62,0,0,1-2.85.32c-1.67,0-5.14,0-5.14-3.81,0-3,1.75-3.51,3.9-3.84a23.18,23.18,0,0,1,3.54-.27h.4v-1c0-.71,0-1.14-.67-1.4a5.1,5.1,0,0,0-1.9-.25,14.88,14.88,0,0,0-3.68.56l-.34.08a.39.39,0,0,1-.5-.26v0l-.2-1V5.48a.46.46,0,0,1,.33-.43,15.39,15.39,0,0,1,4.59-.69,6.82,6.82,0,0,1,3.25.6c1.22.65,1.22,1.85,1.21,2.81Zm-2.06,2.9a27.63,27.63,0,0,0-3.77.25l-.08,0c-1.05.23-1.88.42-1.89,2,0,2,1.5,2.17,3,2.18v0a8.5,8.5,0,0,0,2.7-.4ZM93.17,4.35c-4.83,0-5.24,3.23-5.24,6.25s.41,6.22,5.24,6.23,5.24-3.21,5.25-6.23S98,4.36,93.17,4.35Zm0,10.71c-2.93,0-3.08-1.54-3.1-4.46s.17-4.47,3.1-4.49,3.08,1.55,3.1,4.49S96.1,15.05,93.17,15.06ZM84.5,16.38l-.12,0a11.87,11.87,0,0,1-3.23.4c-4.47,0-5.35-2.29-5.35-6.24C75.8,6,77.22,4.36,81,4.35A11.93,11.93,0,0,1,84,4.69V1c0-.16.06-.37.43-.44L85.57.29h.07c.27,0,.37.25.37.46V14.47a1.6,1.6,0,0,1-1.5,1.91Zm-.56-9.93a11.67,11.67,0,0,0-2.75-.36c-2.28,0-3.25.65-3.27,4.51,0,4.24,1.27,4.47,3.3,4.49v0a10.48,10.48,0,0,0,2.72-.37ZM73.28,16.54H72.22a.5.5,0,0,1-.5-.5V7.88c0-1.37-.43-1.76-1.9-1.78A15.38,15.38,0,0,0,66,6.68V16a.47.47,0,0,1-.47.51H64.39a.5.5,0,0,1-.5-.5V6.9a1.52,1.52,0,0,1,1.25-1.81,17.36,17.36,0,0,1,4.73-.74c2.73,0,3.9,1,3.9,3.35V16a.5.5,0,0,1-.5.5Zm-24.06.22a1.74,1.74,0,0,0,1.24-.34.32.32,0,0,0,.09-.23,5.85,5.85,0,0,0-.17-.87v0a.35.35,0,0,0-.31-.3h-.32c-.44,0-.8-.08-.8-.72V.75a.43.43,0,0,0-.4-.46h-.07L47.28.6a.43.43,0,0,0-.4.44V14.32A2.16,2.16,0,0,0,49.22,16.76Zm-16.8-.22H23.9a.5.5,0,0,1-.5-.5V15a.8.8,0,0,1,.24-.58l6.78-8H23.77a.5.5,0,0,1-.5-.5V5.14a.49.49,0,0,1,.5-.5h8.61a.49.49,0,0,1,.5.5V6.22a.79.79,0,0,1-.21.54l-6.8,8h6.56a.5.5,0,0,1,.5.5V16a.5.5,0,0,1-.5.5Z" style="fill:#1d1d1b;fill-rule:evenodd"/><path d="M4,19.9a2.59,2.59,0,0,1-1.34-.3,3.47,3.47,0,0,1-1.34-1.93A22.25,22.25,0,0,1,0,10H0A22.55,22.55,0,0,1,1.29,2.3,3.57,3.57,0,0,1,2.63.37,2.47,2.47,0,0,1,4,.07a6.35,6.35,0,0,1,1,.09,21.69,21.69,0,0,1,7.2,2.72,21.89,21.89,0,0,1,5.92,5A3.52,3.52,0,0,1,19,10a3.48,3.48,0,0,1-1,2.14,21.89,21.89,0,0,1-5.92,5h0a21.58,21.58,0,0,1-7.19,2.73,6.18,6.18,0,0,1-1,.08" style="fill:#ff6900;fill-rule:evenodd"/></svg>