<svg id="svg3301" xmlns="http://www.w3.org/2000/svg" viewBox="0 0 919.66 224.16"><g id="layer1"><path id="path14" d="M431,1V86.53h64.91v21.63H386.75V86.53H254.53v21.63H386.69v115h21v-94.6H431v94.6H452v-94.6h23v94.6h20.94V180.41H918.66V1ZM8.91,1.5V31H29.25L1,180H18.84c9.67,0,20.33,2.5,32.47,2.5,42.63,0,67.41-45.62,67.41-82.31,0-28-11.63-40.66-26-40.66C77.6,59.5,63,69.93,55,77.13L64.19,31V1.5ZM375.5,43.41a15.38,15.38,0,1,0,15.34,15.37A15.37,15.37,0,0,0,375.5,43.41ZM194.59,59.5c-43.88,0-66.43,38.17-66.43,73.88,0,29.48,18.32,49.09,44.84,49.09,9.67,0,29-3.47,39.94-7.19V151.47c-15.38,3-22.09,4-30.75,4-14.38,0-19.6-11.15-19.6-22.31h19.6c33.21,0,50.56-15.12,50.56-39.41,0-21.81-14.85-34.22-38.16-34.22Zm-6.21,28c4.7,0,8.68,2.22,8.68,8.66,0,8.43-8.43,17.59-20.34,17.59H166.31C169,98.18,180.2,87.53,188.38,87.53ZM73.63,92.47c7.93,0,10.65,7.46,10.65,13.65,0,15.37-11.64,49.32-32.22,49.32-3.23,0-11.9-1.25-11.9-1.25l10.4-49.56c6-6.45,16.88-12.16,23.07-12.16Zm180.9,35.69v95h20.91v-95Zm44.13,0v95h20.93v-95Zm44.12,0v95h20.94v-95Z"/><path id="path34" d="M552.46,58.87V87.65s4.92,0,8.49-.08c10.38-.25,19.75-3.65,20.12-15.44.27-8.38-6.25-12.57-12.7-13-6.18-.41-15.91-.25-15.91-.25m0,38.3v31.5s6.65.23,10.91.05c12.46-.53,19.9-6.53,19.35-16.41-.52-9.69-7.36-14.1-17.78-15-4.82-.41-12.48-.12-12.48-.12m-19.18-40a39.88,39.88,0,0,1-5-1V48.87s5.85.13,12.56.22,12.55-.43,20.76-.43c15.19,0,31.81,2.09,32.62,21.28.7,16.58-15.88,21.38-15.88,21.38s18.5,2.53,17.89,22.07c-.85,27.41-34.8,25.57-34.8,25.57H528.3V131.9l10.91-2.09V57.91s-2-.18-5.93-.75M690.7,87.31V74.74s-7.45,0-12.2.18c-4.19.15-10.73.61-10.73.61v6.89l10.73,1.4V139h12.55V109.82S690.53,96,697,89.1c4.53-4.85,14-2.92,14-2.92V74s-7.63-1-13.34,2.49c-5.41,3.3-7,10.78-7,10.78M635.33,82c14.26.45,12.81,15.17,12.81,15.17H620.23s1.4-15.61,15.1-15.17m-16,24.73h41.43s4.1-34-25.21-33.33c-26,.61-28.69,23.9-28.87,33.68-.14,8,1.66,21.7,12.06,28.67,4.26,2.86,12.92,4.87,21.43,4.48,7.68-.35,17.79-4.1,17.79-4.1v-9.86a53.12,53.12,0,0,1-19.27,3.92c-21.63.36-19.36-23.46-19.36-23.46M723.68,53.37s-3.09-.49-5.07-.75c-2.2-.26-5.67-.57-5.67-.57V45.42s7.84-.51,12.83-.6c4.23-.09,10.81,0,10.81,0v85.32l10.82,1.76V139H712.94V131.9l10.74-1.76V53.37Zm41.25,3.18a8.59,8.59,0,1,1,8.59,8.6,8.6,8.6,0,0,1-8.59-8.6M767.72,84l-11-1.48V75.7c4.27-.38,6.41-.55,11-.74,5.54-.22,9.73-.39,12.47-.22v55.4l11.51,1.76V139h-35V131.9l11-1.76V84Zm42.48,55h12.73v-30.8a31.75,31.75,0,0,1,1.57-12c2-5.94,6.71-12.69,16.14-13.25,11-.68,10.37,11.51,10.37,11.51V139h12.82V93.06s1-18.32-16-19C827,73.2,822.93,86.31,822.93,86.31V74.74s-4.47-.16-11.67.24c-6.84.39-11.8.85-11.8.85v6.81l10.74,1.27V139" style="fill:#fff"/></g></svg>