<svg id="svg1098" xmlns="http://www.w3.org/2000/svg" viewBox="0 0 268.18 187.72"><g id="layer1"><g id="g1073"><g id="g30"><path id="path32" d="M241.49,0H27A26.74,26.74,0,0,0,0,26.73v134a27,27,0,0,0,27,27H241.49a26.92,26.92,0,0,0,26.69-27v-134A26.68,26.68,0,0,0,241.49,0" style="fill:#e30613"/></g><g id="g34"><path id="path36" d="M248.59,160.71c0,4.27-2.83,7.69-7.1,7.69H27a7.41,7.41,0,0,1-7.37-7.69v-134A7.4,7.4,0,0,1,27,19.05H241.49c4.27,0,7.1,3.41,7.1,7.68" style="fill:#fff"/></g><g id="g38"><path id="path40" d="M191.55,155.3H143.88V32.41h49.94c23.56,0,36.33,9.68,36.33,32.72,0,12-9.94,20.48-20.71,25.88,15,4.25,25.25,13.39,25.25,28.72,0,25-21,35.57-43.14,35.57M173.1,81.06h10.23c9.64,0,16.74-4.26,16.74-14.8,0-11.66-9.09-14.8-18.73-14.8H173.1Zm30.37,38.1c0-12.51-7.94-15.36-19.57-15.36H173.1v31.59h10.51c10.51,0,19.86-3.42,19.86-16.23" style="fill:#e30613"/></g><g id="g42"><path id="path44" d="M82,155.3H36.89V32.41H82c31.78,0,48.8,19.92,48.8,60.87,0,35.57-11.35,61.72-48.8,62M101.6,95.84c0-24.74-2.57-44.08-29.23-44.08h-6v83.63H76.9c15.61,0,24.7-12.52,24.7-39.55" style="fill:#e30613"/></g></g></g></svg>