<svg id="kadewe-logo" xmlns="http://www.w3.org/2000/svg" viewBox="0 0 580.21 580.3"><rect id="Fond-blau" width="580.21" height="580.3" style="fill:#06142e"/><path id="KaDeWe" d="M363.48,466.86a34,34,0,1,1,3.7-43.28l-34.82,34.95a17,17,0,0,0,19.69-2.88l11.43,11.21M346,426.8a17.34,17.34,0,0,0-23.28,16.3,16.76,16.76,0,0,0,1.19,5.93L346,426.8ZM231.73,346.13c35.58,0,66.63,28.86,66.63,64.45S267.29,475,231.71,475l-8.46-.07V346.17l8.48,0Zm47.21,64.45a46.14,46.14,0,0,0-36.44-45.12v90.19a46.06,46.06,0,0,0,36.43-45.07Zm-94.83,55.77c-5.43,6.49-13.1,10.55-21.58,10.55-16.44,0-29.75-15.19-29.75-33.92s13.31-33.89,29.75-33.89c8.53,0,16.21,4.08,21.63,10.63l-.11-9.11h19.36V475H184.17l-.06-8.63Zm-16.22-5.53c9.4,0,17-8,17-17.84s-7.62-17.82-17-17.82-17,8-17,17.82S158.49,460.82,167.89,460.82Zm354.71,6a34,34,0,1,1,3.69-43.28l-34.8,34.95a17.06,17.06,0,0,0,7.7,1.91,17.3,17.3,0,0,0,12-4.79l11.43,11.21ZM505.13,426.8a17.34,17.34,0,0,0-23.28,16.3,16.77,16.77,0,0,0,1.2,5.93l22.08-22.23ZM102.55,346.17,75.71,391.23V346.17H56.4V475H75.71v-64.4l32.8,64.4h21.73L92.47,400.89,125,346.17ZM416.61,365.5l-19.35,45.66-10.47-65H367.2l21.3,131.24L416.61,411l28.11,66.46L466,346.17H446.43l-10.47,65L416.61,365.5Z" style="fill:#fff"/><path id="BERLIN" d="M225.48,498.71c-4.26.12-4.26.12-5.09.12-1.42,0-4.56-.06-5.21-.06v1.36c1.42.06,2,.48,2.31,1.6.18.71.24,1.77.24,9.7,0,7.75-.12,9.53-.42,10.36a2,2,0,0,1-2.07,1.06v1.42c3.43-.06,3.73-.06,4.91-.06.36,0,1.36,0,2.55.06,1.83.06,2,.06,2.48.06,6.27,0,10.12-2.78,10.12-7.45,0-3.38-2.49-5.68-6.57-6a6.42,6.42,0,0,0,5-6.45c0-3.84-2.31-5.68-7-5.68ZM222.87,510v-9h.18l1.18-.06c2.67,0,4,1.42,4,4.44,0,3.37-1.19,4.67-4.09,4.67l-1.24-.06Zm0,2.19c.95-.06,1.54-.06,2.07-.06,3,0,4.56,1.78,4.56,4.91,0,3.38-1.66,5.68-4,5.68a3,3,0,0,1-2-.65c-.35-.47-.47-.77-.47-2.19S222.87,515.34,222.87,512.14ZM260,522.5v-.24l.06-3.73h-1.36c-.54,2.61-2,3.61-5.39,3.61-2.25,0-3.43-.35-3.73-1.06a14.26,14.26,0,0,1-.29-3.61V512h.59l3-.06c2.07,0,3.25.88,3.31,2.36v.3h1.36c-.06-.12-.06-.18-.06-.59v-.77c-.06-.71-.06-1.78-.06-2.31,0-.77.06-3.43.12-3.73h-1.42c-.29,2.31-.59,2.6-2.66,2.6h-4.2V500.9a3.87,3.87,0,0,0,.59-.06c1,0,2.9-.06,3.67-.06,3.25,0,4.08.59,4.2,3.08H259v-.48l-.06-.65v-4.08c-4.79.12-8.4.18-11.06.18-1.48,0-5.44-.06-6.33-.06v1.36c1.42.06,2.07.53,2.31,1.6.17.71.23,2.31.23,10.06,0,7.39-.12,9.17-.41,10a2,2,0,0,1-2.07,1.07v1.42h.83l4.2-.06c1,0,9.82.12,13.37.12L260,522.5Zm30.34.35c-1.19-.12-2.07-.83-3.85-3.19-2.25-3.08-3.31-4.68-5.44-8.17a7.35,7.35,0,0,0,4.67-6.74c0-3.91-2.66-6-7.63-6h-1.24c-4,.06-5,.06-6,.06-1.24,0-4.38-.06-5-.06v1.36c1.25.06,1.84.42,2.19,1.25.24.59.3,1.71.3,5.2v3.31c0,8.64-.06,10.65-.3,11.6s-.89,1.36-2.13,1.36v1.42c3.67-.06,3.67-.06,5-.06s1.3,0,5.21.06v-1.42c-1.31,0-2.13-.53-2.37-1.6-.12-1.24-.18-3.13-.18-8h2.61A120.1,120.1,0,0,0,283,524.27h.59l4.08-.06c.83,0,1.9,0,2.66.06v-1.42ZM273.5,500.78h2.31c2.55,0,4,1.66,4,4.74,0,3.55-1.59,5.68-4.37,5.68a17.89,17.89,0,0,1-1.9-.12v-10.3Zm38.72,21.72v-.24c0-.89,0-3.19.06-3.73H311v.06c-.71,2.55-2.13,3.55-5.27,3.55s-3.31-.12-3.31-6.62c0-5.74,0-10.71.12-12.25.17-2.84.29-3.14,2.42-3.14v-1.36H303c-1.3.06-2.25.06-3.19.06-1.31,0-4.44-.06-5.09-.06v1.36c1.24.06,1.83.42,2.19,1.25.23.59.29,1.71.29,5.2v3.32c0,8.63-.06,10.64-.29,11.59s-.89,1.36-2.13,1.36v1.42l6.56-.06c1.78,0,8.82.12,10.95.12l-.06-1.83Zm16,.35c-1.42,0-2.19-.53-2.36-1.71-.18-1-.18-3.32-.18-11.54,0-9.41,0-9.41,2.54-9.47v-1.36h-1.95c-1.36.06-2.31.06-3.25.06-1.25,0-4.38-.06-5-.06v1.36c1.24.06,1.83.42,2.19,1.25.23.59.29,1.71.29,5.2v3.31c0,8.64-.06,10.65-.29,11.6s-.89,1.36-2.13,1.36v1.42c3.67-.06,3.67-.06,5-.06s1.3,0,5.2.06v-1.42Zm31.15-24.08h-1.18c-.89.06-1.66.06-2.55.06s-1.83,0-2.78-.06h-1.42v1.36c1.66.06,2.37.42,2.54,1.48a80.21,80.21,0,0,1,.36,10.35v2l-13.55-15.27h-.47l-.65.06H333.8v1.72A3.38,3.38,0,0,1,337,502l.06,8.69c0,8.76-.17,11-.77,11.72-.35.29-.77.41-1.89.41v1.42c3-.06,3-.06,4.14-.06s2,0,3.73.06v-1.42c-1.83,0-2.31-.3-2.48-1.66-.18-1.59-.3-6.8-.3-12.48v-3.13l17.28,19.11V512.14c0-7.51.11-10.35.53-11.18.29-.59.71-.83,2.07-.83v-1.36Z" style="fill:#fff"/></svg>