<svg id="Layer_1" data-name="Layer 1" xmlns="http://www.w3.org/2000/svg" viewBox="0 0 552.76 86.91"><path d="M1.71,83.86V67.31q14.19,4.44,25.12,4.45,15.08,0,15.07-7.93a6.5,6.5,0,0,0-2.19-5c-1.5-1.41-5.35-3.39-11.51-5.91Q11.58,46.14,6.54,41.35A21.22,21.22,0,0,1,0,25.39Q0,13,9.52,6.45T34,0q8.32,0,24.09,3.05V19q-11.73-4.66-21.78-4.66-14.16,0-14.16,7.75A5.45,5.45,0,0,0,25,26.79q2.39,1.49,13.08,6.27,15.4,6.81,20.52,11.84,6.08,6,6.08,15.45Q64.7,74,52.79,81.1q-9.61,5.82-25,5.81a115.25,115.25,0,0,1-26.1-3ZM78,85.21V1.46h23.51V85.21Zm45.08,0V1.46h60.31V16.61H145.71V35.52h32.78V49.33H145.71V69.22h38.63v16Zm76.64,0V1.46h30.49L251.36,55,273.07,1.46H302V85.21H279.73V25.92L255,86.06H240.47L216.26,25.92V85.21Zm123.9,0V1.46H383.9V16.61H346.25V35.52H379V49.33H346.25V69.22h38.63v16Zm76.76,0V1.46H427.6l28.92,56.07V1.46h16.56V85.21H446.6L416.92,28.39V85.21Zm89.42-1.35V67.31q14.09,4.44,25.12,4.45,15.09,0,15.09-7.93a6.63,6.63,0,0,0-2.14-5c-1.5-1.41-5.36-3.39-11.57-5.91q-16.57-6.73-21.67-11.6a21.28,21.28,0,0,1-6.54-16q0-12.34,9.52-18.86T522.1,0q8.5,0,22,2.7l2.08.35V19a59.32,59.32,0,0,0-21.83-4.66q-14.11,0-14.1,7.75a5.44,5.44,0,0,0,2.84,4.73q2.26,1.42,13.14,6.27,15.3,6.81,20.46,11.84,6.06,6,6.07,15.45,0,13.6-11.84,20.75-9.69,5.82-25,5.81a115.42,115.42,0,0,1-26.12-3Z" style="fill-rule:evenodd"/></svg>