
<svg id="Ebene_1" data-name="Ebene 1" xmlns="http://www.w3.org/2000/svg" viewBox="0 0 378.6 445"><g id="Ebene_2" data-name="Ebene 2"><path d="M7.8,348.9l181.6-62.7,181.3,63.6,7.9-22.6L225.9,273.6l151-52.1-7.8-22.7L267.3,234V0h-8V236.7l-13,4.5V0h-8V244l-13,4.5V0h-8V251.2l-13,4.5V147.4a23.1,23.1,0,0,0,0-35.8V0h-8V107.4a23.92,23.92,0,0,0-13,0V0h-8V111.6a23.1,23.1,0,0,0,0,35.8V255.9l-13-4.6V0h-8V248.4l-13-4.6V0h-8V241.1l-13-4.6V0h-8V233.7L10.2,197.9,2.3,220.5,153,273.4,0,326.2ZM183.3,151.6a23.92,23.92,0,0,0,13,0V258.5l-6.8,2.3-6.2-2.2Z"/><path d="M54.2,376.6A36.55,36.55,0,0,0,35.7,372H6.3v71H35.7a38.15,38.15,0,0,0,18.6-4.4A31.82,31.82,0,0,0,67,426.1a38.9,38.9,0,0,0,0-36.7A33.49,33.49,0,0,0,54.2,376.6ZM49,423a19.86,19.86,0,0,1-14.8,6H23.3V387H34.1c6.2,0,11.2,1.8,14.8,5.7s5.5,9,5.5,15.4C54.5,414.2,52.6,419.2,49,423Z"/><polygon points="82.3 443 129.3 443 129.3 429 99.3 429 99.3 414 126.3 414 126.3 400 99.3 400 99.3 387 129.3 387 129.3 372 82.3 372 82.3 443"/><path d="M177.3,400.6l-11.2-2.5a20.76,20.76,0,0,1-6.4-2.5,5.17,5.17,0,0,1-2.1-4.5,6.08,6.08,0,0,1,2.5-5.1,10.55,10.55,0,0,1,6.6-1.9,12.51,12.51,0,0,1,7.7,2.1,7.56,7.56,0,0,1,3.1,5.8h16.7a20.64,20.64,0,0,0-3.5-11.3,21.61,21.61,0,0,0-9.4-7.6,33.65,33.65,0,0,0-13.8-2.7,32.41,32.41,0,0,0-14,2.8,21.25,21.25,0,0,0-9.3,7.9,21.6,21.6,0,0,0-3.3,12,18.72,18.72,0,0,0,4.6,12.9c3.1,3.5,8,6.1,14.6,7.6l11.8,2.8a11.86,11.86,0,0,1,5.3,2.4,5.55,5.55,0,0,1,1.9,4.5,6.46,6.46,0,0,1-2.9,5.6c-1.9,1.4-4.6,2.1-8,2.1-3.7,0-6.7-.7-8.9-2.3a8.05,8.05,0,0,1-3.7-6.6H139a22.18,22.18,0,0,0,8.6,16.6c5.2,4.1,12,6.1,20.5,6.1a35.84,35.84,0,0,0,14.8-2.9,23.37,23.37,0,0,0,9.9-8.1,21.58,21.58,0,0,0,3.5-12.2,19.57,19.57,0,0,0-4.7-13.2C188.3,404.7,183.6,402.1,177.3,400.6Z"/><rect x="207.3" y="372" width="16" height="71"/><path d="M270.3,418h19.2a16.19,16.19,0,0,1-6.5,8.6c-3.4,2.2-7.4,3.1-12.1,3.1-6.1,0-11-2-14.7-5.8s-5.5-9.2-5.5-16,1.8-12.3,5.4-16.3,8.6-6.1,14.9-6.1a20.34,20.34,0,0,1,10.9,2.8,15.32,15.32,0,0,1,6.4,7.7h17.3a29.7,29.7,0,0,0-6-13.4,32.2,32.2,0,0,0-12-9,41.36,41.36,0,0,0-16.4-3.2,39.14,39.14,0,0,0-19.5,4.8,33.13,33.13,0,0,0-13.2,13.3,40.18,40.18,0,0,0-4.7,19.5,39.75,39.75,0,0,0,4.5,19.2A31.56,31.56,0,0,0,251.1,440a39.9,39.9,0,0,0,19.3,4.6,41,41,0,0,0,18.8-4.2,31.53,31.53,0,0,0,17.9-29.1V404h-37v14Z"/><polygon points="362.3 415.2 333.2 372 318.3 372 318.3 443 334.3 443 334.3 400.1 363.2 443 378.3 443 378.3 372 362.3 372 362.3 415.2"/></g></svg>
