<svg id="svg2626" xmlns="http://www.w3.org/2000/svg" viewBox="0 0 997.25 436.79"><path id="path2466" d="M27,299.26S263.37,388.31,421.39,392c304.75,7.1,572.23-117.28,573.93-116.88,1.37.32,2.9,7.42,1.93,9.35-19.92,37.75-325.07,152.3-573,152.3C222.4,436.79,0,344.43,0,344.43l27-45.17" style="fill-rule:evenodd"/><path id="path2478" d="M489.05,0c-13.63,2.9-18.58,4-32.38,6.35l-.82,1c.89,11.37.82,22.72.82,34-2.49,0-5.49-.21-8-.21-9.35,0-23.15,1.22-33,15.58-7.33,11-9.22,25-9.22,37.91,0,11.14,1.25,22.2,7,31.57,5.25,8.62,12.12,12.5,21.31,12.5,12.91,0,18.71-7.4,21.93-11.68,0,3.23-.09,5-.41,9.63l1,1c14.52-.73,18.81-.78,31.56-.61l1-1c-.49-12-1-21.84-1-44.67V74c.4-57.52.87-62.55,1.43-73Zm44.89,2.25c-12.59,2.18-16.38,2.65-30.34,4.1l-1,1c.48,11.38.61,13.91.61,25.21l1,1c12.9-2.34,16.81-2.69,29.72-4.3l1-1.23c0-11.62-.16-13.26,0-24.8Zm-267.66,8c-7,0-37.37.41-43.65.41l-.62,1c1.05,18.8,1,51.8,1,63.33,0,9.68-.58,52.89-.81,61.69l1.22,1c16.62-.56,18.35-.61,34.64-.61l1-1c-1.05-16.13-1.23-23.88-1.23-45.9,1.93,0,3.39.16,5.32,0l4.1,12.91c2.91,9.11,5.79,18.55,8.61,27.66a60.7,60.7,0,0,0,2,6.15l1.23,1c16-.89,20-1.08,36.68-1.64l.82-1.23c-7.18-14.2-12.51-27.15-16-35.46l-7.17-18c5.4-3.79,16.39-11.47,16.39-33.41,0-7.83-1-25.9-15.37-33.4C287.22,10.8,276.69,10.25,266.28,10.25Zm-5.33,25c1,0,1.86,0,2.66,0,5.17,0,7.53,2.25,8.82,4.92,1.61,3.22,1.64,7,1.64,9.22,0,5.17-.8,13.53-9,16.19a19.68,19.68,0,0,1-7.17.62c.16-8.47.41-22.15.41-30.54A12.94,12.94,0,0,1,261,35.25ZM536.4,38.32c-15.25,3.39-19,3.78-34.44,6l-1,1.23C502.56,61.79,503,78,503,94.27c0,16.86-.71,29.52-1,42.43l1.23,1c15.65-.73,19.92-.78,34.44-.61l1-1c-1.45-19.52-1.84-39.09-1.84-58.61,0-11,.24-25.38.41-38.12Zm-175,.82c-8.79,0-22.63,1.68-33.2,6.36l-1,1.43c-.4,9.85-.3,11.15-1,21.32l1.44.61a41.84,41.84,0,0,1,23.57-7.38c11.61,0,12.05,4.16,11.88,10.46-33.55,5.56-45.09,17-45.09,37.3,0,18.07,10.75,29.3,24,29.3a27.53,27.53,0,0,0,21.73-9.83v8l1.43,1c12.91-.56,16.58-.78,30.54-.61l1.43-1c-1.45-17-1.43-21.38-1.43-40.58V84c.24-17.43.46-24.63-3.9-32C385.65,42.05,373.14,39.14,361.37,39.14Zm230.77,0c-5.89,0-21.24.48-32,12.1-11.54,12.34-11.48,31.53-11.48,37.5,0,15.09.81,50.62,42.43,50.62,6.45,0,21.11-.48,31.76-12.5,9.84-11.3,10.66-27.95,10.66-37.3,0-10.25-1.28-19.35-4.51-27.26C622.82,47.06,610.45,39.14,592.14,39.14Zm-1,21.32c4.68,0,5.74,5.81,6.14,7.58,1,5.41,1.23,17.18,1.23,22.34,0,5.73.09,19.46-2.25,24a6,6,0,0,1-5.12,3.28c-5,0-6-5.82-6.36-8-1-6.62-1-13.94-1-21.11,0-6.3,0-19.64,2.46-24.8C587.09,62.29,588.45,60.46,591.12,60.46ZM453.19,63.94a10.22,10.22,0,0,1,2.66.41c.17,22.43.33,27.85,0,46.73-.72.89-3.08,3.89-6.15,3.89-4.11,0-5.82-4-6.14-5.12-1.46-3.23-2.26-7.91-2.26-15.58a86.32,86.32,0,0,1,1-15.16C442.73,75.72,444.56,63.94,453.19,63.94Zm-90,25.62v20.91c-1.13,1.28-3,3.68-6.56,3.68-5.4,0-7.79-4.8-7.79-10C348.87,92.82,356.36,90.12,363.22,89.56Zm332.62,21.73c-20.33,4.68-25.5,5.83-43.24,9.63-.41.56-.83,1.07-1.23,1.64.65,9.35,1.11,16.66,1.43,33.2s.62,39.86.62,86.48c0,45.42-.75,65.67-1.23,93.25.4.65.83,1.2,1.23,1.85,19.44-4.12,23.17-4.69,44.06-8,.33-.73.63-1.54,1-2.26-1.37-40.09-1.64-58.32-1.64-170.92,0-15.33.08-26.71.41-43.25Zm62.51,0c-20.41,4.36-25.63,5.75-43.45,9.22a15.23,15.23,0,0,0-1,1.64c.56,8.95,1.11,16.2,1.43,32.17s.41,38.43.41,82.8c0,43.24-.14,62.4-1,88.13.4.56.61,1.07,1,1.64,19.44-4.84,23.26-5.61,44.07-10.05.32-.64.82-1.4,1.23-2-1.29-36.71-1.64-52.87-1.64-160.48,0-14.68-.13-25.5.2-41.4C759.1,112.44,758.83,111.77,758.35,111.29Zm-642.3,14.14c-.48.4-1,.82-1.43,1.23-1.77,7.33-9.86,37.85-11.48,44.06-3.3,12.25-6.65,23.72-10,35.66-3.55,13.15-7,25.45-10.66,38.12-7.1,26.46-7.82,28.95-12.5,42.42.4.57.82.95,1.23,1.44,17,5.24,22.56,7.05,40.78,12.29l1.44-1.23c2.25-14.11,5.17-27.43,8.4-41.39,12.42,2.41,24.47,4.38,36.89,6.55,2.9,18.32,4.68,29.19,7.18,49.6a16.52,16.52,0,0,1,1.43,1.85c22,4.68,25.9,5.23,45.5,9a17.67,17.67,0,0,0,1-1.84c-.4-2.58-2.38-13.32-2.87-15.58-2.42-12.5-5.93-31.26-8.19-43C199.36,247,196,230.83,192.5,214.37c-6.38-30.08-6.9-32.46-17.22-77.47-1-3.46-1.73-6.65-2.46-10-.48-.48-.74-1-1.23-1.43C148.21,125.83,144.53,126,116.05,125.43ZM442.94,151c-11.19.12-22.54.34-22.75.62.9,17.1,1.08-4.31,1.64,30.54.33,17.9.21,35.64.21,54.51,0,55.75-.34,83-.82,111.49.4.73.82,1.45,1.23,2.26,7.74-.16,13.06-.5,20.08-.41,4,.08,21,.52,24.8.2,9.12-.48,32.14-2.5,48-34.84,10.32-21.13,12.91-44.46,12.91-68.66,0-13-1.17-34.84-10-52.26-4.44-8.38-12.88-20.08-28.29-20.08-13.79.16-21.93,9.53-25.41,13.73.13-4.62.2-16.62.2-26.64.14,1.1.49-.66.82-10.46C465.28,150.88,454.13,150.93,442.94,151Zm-302.09,7.79c1.94,14,2.35,18.06,5.74,37.51,1.77,9.83,3.35,19.34,5.12,29.51-8.14-.72-16.12-1.38-24.59-2.67,2-8.79,4.13-17,6.15-25.82C137.87,175.74,138.52,172.15,140.85,158.83ZM832.13,164c-1.91,0-3.8.1-5.74.2-11.45.64-28.75,3.94-42.63,11.27-.48.65-.74,1.28-1.23,1.85-.48,14.28-.38,15.66-1.43,30.74.57.33,1.29.78,1.84,1,6.38-5.24,16.1-11.91,30.13-13.11,15.17-1.38,15.54,4.12,15.37,12.91-43.56,13.3-57.79,30.07-57.79,61.69,0,28.15,13.47,42.67,30.74,38.32,16.53-4.43,24.77-16.6,28.08-21.52V299c.56.32,1.15.7,1.64,1,16.85-5.49,21.12-6.85,39.35-12.09.56-.64,1.07-1.28,1.64-1.85-1.94-21.7-1.85-26.68-1.85-51.85.08-5,.13-9.88.21-15,.4-22.75.44-31.31-5.13-40.58C858.07,167.91,845.52,164.15,832.13,164Zm-567.29,5.73c-19.36,4.84-23.2,5.28-43,7.38-.57.57-1.16,1.08-1.64,1.64,1.2,14,2.46,34.45,2.46,73.17,0,26.7-.55,47-1,74.6.48.73.75,1.32,1.23,2,19.2,2.66,25.14,3.46,43.86,6.76.56-.56,1.07-1,1.64-1.64-.32-15.33-1-61.16-1-71.32,0-12.91.13-24.27,5.13-31.77,2.82-3.87,7-6.19,11.47-5.94,7,.48,11,6.52,12.92,9,.64-.4,1.19-.83,1.84-1.23,1.77-25.82,2.3-31.66,5.53-58.21a17.08,17.08,0,0,0-1.43-1.84,23.49,23.49,0,0,0-6.56-1c-17.26-.32-23.63,10.08-29.92,37.51,0-17.67.24-29.49,0-37.71Zm325.87,2.87c-28.32,1-43.35,20.71-49.4,51.85-1.93,9.92-2.66,20.64-2.66,34.44,0,18.31.78,68.07,33.2,85.25,5.17,2.42,12.72,4.78,25.62,3.49a63.25,63.25,0,0,0,34.63-14.76c.49-.88.83-1.66,1.23-2.46.41-19.85,1-25.39,1.44-41.19-.48-.4-1.07-.83-1.64-1.23-3.47,3.87-11.35,12.24-26,13.52-15.89,1.14-25.71-10.09-26.44-30.74,19-1,37-2.32,56-3.69.56-.64,1.16-1.41,1.64-2.05.25-10.33.41-14.12.41-20.49,0-26.78-3.24-54.43-26.64-67.43C605.49,173.69,598.44,172.41,590.71,172.56ZM361,173.18c-11.46-.17-28.83,2.41-42.63,9.43-.48.64-1,1.2-1.43,1.84-.57,16-.55,17.54-1.43,34.64.64.41,1.27.82,1.84,1.23,6.38-5.09,16.09-11.11,30.13-10.87,15.24.49,15.73,7.11,15.57,17.83-43.56,9.28-57.79,24.7-57.79,61.49,0,32.91,13.19,55.82,30.53,58,16.62,1.45,24.85-11.53,28.08-17v16c.57.72,1.08,1.45,1.64,2.26,16.86.24,21.32.14,39.56,1.43.48-.73.86-1.52,1.43-2.25-1.85-35.09-1.84-42.51-1.84-77.68.08-6.94.25-13.63.41-20.49,0-30.89.36-41.69-5.13-54.11C391.43,178.2,376.37,173.5,361,173.18ZM589.68,208c8.87,0,8.61,16.41,8.61,27.46-6.21.33-12,.58-18.24.82C580.05,228.55,580.32,208.67,589.68,208ZM472,214.78c.65,0,5.56-.09,9,9.43,2.1,6.53,2.66,15.61,2.66,27.87,0,17-.9,39.69-8.4,50-4.2,5.25-7.83,4.62-10.66,4.3-.4-25.73,0-43.94,0-86.69C465.88,218.17,468.34,214.86,472,214.78Zm356.61,18v29.3c-1.37,2-3.72,5.6-8.41,6.56-7,1.29-10-4.92-10-12.5C810.2,239.65,819.78,234.92,828.65,232.82Zm-465.43,24.8v37.71c-1.37,2.25-3.93,6.38-8.61,6.14-7-.64-9.84-9.54-9.84-19.06C344.77,261.68,354.27,258.18,363.22,257.62Z" style="fill-rule:evenodd"/></svg>