<svg id="Ebene_1" data-name="Ebene 1" xmlns="http://www.w3.org/2000/svg" viewBox="0 0 85.7 28.3"><path d="M85.7,16.3H83L80.3,21l-2.7-4.7H74.9l4.1,7v4.8h2.6V23.4l4.1-7.1ZM71.1,28.1h2.1V16.3H70.7v7.2l-5.2-7.2H63.2V28.1h2.5V20.8l5.4,7.3Zm-11.9,0H62L57.2,16.3H54.8L50.2,28.1h2.7l.8-2.2h4.7l.8,2.2Zm-1.6-4.5H54.5L56,19.4l1.6,4.2Zm-7.2-3.2a4,4,0,0,0-4.2-4H41.7V28.2h2.5V24.5h2a4.14,4.14,0,0,0,4.2-4.1Zm-2.6,0a1.63,1.63,0,0,1-1.7,1.7H44.2V18.7h1.9a1.58,1.58,0,0,1,1.7,1.7Zm-11,7.7h2.6L37.6,16.3H35l-3.2,7.2-3.2-7.2H26.1L24.3,28.1h2.6l1.2-7.7L31.6,28h.6l3.5-7.7,1.1,7.8ZM22.9,22.2a6,6,0,0,0-6.2-6.1,6.1,6.1,0,1,0,0,12.2,6,6,0,0,0,6.2-6.1Zm-2.5,0a3.7,3.7,0,1,1-3.7-3.7,3.63,3.63,0,0,1,3.7,3.7ZM6,28.2H9.2V25.8H6a3.34,3.34,0,0,1-3.4-3.5A3.28,3.28,0,0,1,6,18.8H9.1V16.4H6a5.75,5.75,0,0,0-6,5.9,5.75,5.75,0,0,0,6,5.9Z" style="fill:#1c2157"/><path d="M5.3.2H.8V12H5.2a5.81,5.81,0,0,0,6-5.9A5.73,5.73,0,0,0,5.3.2ZM5.2,9.6H3.4v-7H5.2A3.28,3.28,0,0,1,8.6,6.1,3.34,3.34,0,0,1,5.2,9.6ZM13.8,12h2.5V.2H13.8V12Zm8.6-2.4V7.2h4.1V4.9H22.4V2.6h4.5V.2H19.8V12H27V9.6ZM36.9,12h2.8L37.1,7.6a3.67,3.67,0,0,0,2.1-3.4A3.89,3.89,0,0,0,35.1.3H30.4V12H33V8h1.6l2.3,4ZM33,2.6h2c1.1,0,1.7.6,1.7,1.5S36.1,5.6,35,5.6H33v-3ZM52.3,12,47.9,5.9l4-5.6h-3L45,5.7V.2H42.5V12H45V6.2l4.2,5.7h3.1Zm6.3.2C61,12.2,63,11,63,8.4s-2.3-3.2-4-3.6c-1.2-.3-2.3-.5-2.3-1.4s.8-1.1,1.7-1.1,1.8.5,1.8,1.5h2.5c0-2.3-1.5-3.8-4.2-3.8s-4.3,1.3-4.3,3.5c0,2.5,2.2,3,3.9,3.5,1.3.3,2.3.5,2.3,1.5s-.9,1.4-1.9,1.4-2-.5-2-1.7H54c0,2.5,1.9,4,4.6,4Z" style="fill:#1c2157"/><polygon points="76 5.2 73.2 5.2 73.2 2.4 70.8 2.4 70.8 5.2 68 5.2 68 7.5 70.8 7.5 70.8 10.5 73.2 10.5 73.2 7.5 76 7.5 76 5.2" style="fill:#1c2157"/></svg>