
<svg id="Ebene_1" data-name="Ebene 1" xmlns="http://www.w3.org/2000/svg" viewBox="0 0 201.03 56.69"><polygon points="96.16 1.68 102.39 1.68 102.39 34.72 110.17 24.2 118 24.2 106.83 38.68 120.21 55.81 112.61 55.81 102.39 43.21 102.39 55.81 96.16 55.81 96.16 1.68 96.16 1.68" style="fill:#020a09;fill-rule:evenodd"/><polygon points="149.03 1.68 155.2 1.68 155.2 55.81 149.03 55.81 149.03 1.68 149.03 1.68" style="fill:#020a09;fill-rule:evenodd"/><path d="M131.37,50.53c-5.41,0-9.79-4.71-9.79-10.53s4.38-10.52,9.79-10.52,9.79,4.71,9.79,10.52-4.39,10.53-9.79,10.53Zm0-27.21A16.43,16.43,0,0,0,115.2,40a16.18,16.18,0,1,0,32.34,0,16.43,16.43,0,0,0-16.17-16.68Z" style="fill:#020a09;fill-rule:evenodd"/><polygon points="96.16 1.68 102.39 1.68 102.39 34.72 110.17 24.2 118 24.2 106.83 38.68 120.21 55.81 112.61 55.81 102.39 43.21 102.39 55.81 96.16 55.81 96.16 1.68 96.16 1.68" style="fill:#020a09;fill-rule:evenodd"/><path d="M31.74,24.19h6.17V55.81H31.74V24.19Zm0-22.52h6.17v21H31.74v-21Z" style="fill:#020a09;fill-rule:evenodd"/><polygon points="39.39 24.2 44.38 24.2 44.38 1.68 50.55 1.68 50.55 24.2 55.54 24.2 55.54 30.37 50.55 30.37 50.55 55.81 44.38 55.81 44.38 30.37 39.39 30.37 39.39 24.2 39.39 24.2" style="fill:#020a09;fill-rule:evenodd"/><polygon points="77.95 55.81 55.54 55.81 55.54 50.47 69.51 30.37 57.02 30.37 57.02 24.2 77.22 24.2 77.22 30.05 63.55 49.63 77.95 49.63 77.95 55.81 77.95 55.81" style="fill:#020a09;fill-rule:evenodd"/><polygon points="77.95 36.43 93.17 36.43 93.17 42.61 77.95 42.61 77.95 36.43 77.95 36.43" style="fill:#020a09;fill-rule:evenodd"/><path d="M23.82,26.28V24.19H17.64V55.81h6.18V36.62c0-1.88.34-5.78,6.45-6.25V24.19s-4-.24-6.45,2.09Z" style="fill:#020a09;fill-rule:evenodd"/><path d="M5,24.19V10.08C5,3,9-.28,16.81,0v6.8c-6.17,0-5.64,3.22-5.64,8.38v9h5v6.17h-5V55.81H5V30.37H0V24.19Z" style="fill:#020a09;fill-rule:evenodd"/><path d="M172.86,50.53c-5.4,0-9.78-4.71-9.78-10.53s4.38-10.52,9.78-10.52,9.79,4.71,9.79,10.52-4.38,10.53-9.79,10.53Zm9.42-26.33v2.24a15.78,15.78,0,0,0-9.42-3.12A16.43,16.43,0,0,0,156.69,40a16.43,16.43,0,0,0,16.17,16.69,15.74,15.74,0,0,0,9.42-3.13v2.25h6.17V24.2Z" style="fill:#020a09;fill-rule:evenodd"/><path d="M195.17,5.45h-1.55V7.61h1.55a1,1,0,0,0,1.18-1.08,1.05,1.05,0,0,0-1.18-1.08Zm1.22,6-1.46-2.92h-1.31v2.92h-1.05V4.5h2.68a2,2,0,0,1,2.15,2A1.8,1.8,0,0,1,196,8.36l1.6,3.07Z" style="fill:#020a09"/><path d="M194.74,2.62A5.35,5.35,0,1,0,200.08,8a5.36,5.36,0,0,0-5.34-5.35Zm0,11.64A6.3,6.3,0,1,1,201,8a6.3,6.3,0,0,1-6.29,6.29Z" style="fill:#020a09"/></svg>
